<?xml version="1.0" standalone="no"?>
<!DOCTYPE svg PUBLIC "-//W3C//DTD SVG 1.1//EN" "http://www.w3.org/Graphics/SVG/1.1/DTD/svg11.dtd" >
<svg xmlns="http://www.w3.org/2000/svg" xmlns:xlink="http://www.w3.org/1999/xlink" version="1.1">
<metadata></metadata>
<defs>
<font id="shaglounge" horiz-adv-x="1019" >
<font-face units-per-em="2048" ascent="1638" descent="-410" />
<missing-glyph horiz-adv-x="430" />
<glyph horiz-adv-x="0" />
<glyph unicode="&#xd;" horiz-adv-x="430" />
<glyph unicode=" "  horiz-adv-x="430" />
<glyph unicode="&#x09;" horiz-adv-x="430" />
<glyph unicode="&#xa0;" horiz-adv-x="430" />
<glyph unicode="!" horiz-adv-x="499" d="M39 170q0 88 62.5 137t150.5 49t148.5 -53t60.5 -141q0 -86 -64.5 -137.5t-150.5 -51.5q-41 0 -78 13.5t-65.5 39t-46 61.5t-17.5 83zM86 1417q72 2 129 5t98 5q47 2 82 5q0 -135 -2 -293q-2 -135 -3 -316.5t-1 -386.5q-57 0 -110 2q-47 0 -95.5 1t-79.5 1 q-6 469 -11 723t-7 254z" />
<glyph unicode="&#x22;" horiz-adv-x="792" d="M80 870q0 23 1 95.5t1 160.5v174q0 87 -2 136h70q35 0 80.5 1t105.5 3q-2 -80 -4 -174q-2 -80 -5 -183.5t-8 -220.5q-35 -2 -73 0q-35 0 -78 2t-88 6zM453 1401q31 0 69 -2q35 -2 83 -3t108 -3q-2 -74 -6 -160q-4 -74 -7.5 -174.5t-7.5 -216.5q-37 0 -74 2q-35 2 -75.5 3 t-85.5 3v158q0 74 -1 174t-3 219z" />
<glyph unicode="#" horiz-adv-x="1071" d="M41 1182q16 -2 44 -1t56 3q31 2 66 2q0 66 -1 120t-3 93q-2 45 -4 80h149q33 0 58 2q0 -49 2 -98.5t4 -88.5q2 -45 4 -86h67q29 0 64 1t69 3q0 51 -1 96.5t-1 80.5q-2 39 -2 71q45 -2 86 -3t74 -1h70q-2 -74 -1 -124t1 -81v-57h133q31 0 55 2q-6 -109 -6 -158v-51 q-33 2 -66 2h-61q-33 0 -63 -2q-2 -70 -1 -120t1 -85q0 -39 2 -67q33 -2 63 -2h55h54q-2 -53 -2 -92v-66q0 -33 2 -55q-37 2 -71 3t-60 1h-56q0 -80 1 -126t3 -71q2 -29 4 -37q-59 -2 -98 -2h-61q-27 0 -43 -2q0 74 -1 121t-1 76q-2 33 -2 51q-41 2 -76 2h-64h-61 q0 -70 1 -112t1 -64q0 -27 2 -41q-12 0 -46 -1t-69 -1h-88q2 66 3 110t1 70v47q-47 0 -80.5 -1t-56.5 -1q-25 -2 -43 -2q0 53 -1 90t-1 62q-2 29 -2 47q35 -2 68 -2h106q0 51 2 100q0 41 1 85t1 73q-37 2 -69 2h-105q-2 57 -2 96t-2 64q-2 29 -2 45zM416 983q2 -86 3 -140.5 t3 -84.5q2 -37 2 -53q51 -2 90 -1t68 1q33 0 55 2q2 53 2 104v92v88q-127 -2 -178 -6q-31 -2 -45 -2z" />
<glyph unicode="$" horiz-adv-x="1024" d="M29 518q27 2 65 4q35 2 84 5t121 12q8 -49 33.5 -84t59.5 -58.5t74 -35t79 -11.5q59 0 101 25.5t42 77.5q0 41 -30.5 67.5t-82 45t-115 33.5t-126.5 34q-59 18 -113.5 41.5t-97.5 60.5t-68.5 88t-25.5 123q0 147 106.5 238.5t282.5 107.5q-2 23 -4 54q-2 27 -4 65.5 t-7 87.5q25 0 64 -2q35 -2 91 -3t142 -1q-2 -18 -4 -51q-2 -29 -3 -76t-5 -117q141 -35 229.5 -134t100.5 -245q-33 0 -72 -2q-35 -2 -82 -4t-102 -6q-8 55 -34 94t-62.5 64.5t-81.5 38t-88 12.5q-37 0 -70 -8t-58.5 -23.5t-41 -38t-15.5 -51.5q0 -51 38 -79.5t97.5 -46 t131 -31t139.5 -31.5q51 -14 98 -36t82 -53.5t56.5 -76.5t21.5 -109q0 -104 -72 -184t-201 -113q2 -66 5.5 -112.5t5.5 -79.5q2 -37 4 -64q-72 -2 -127 -2q-53 0 -88 -2q-41 -2 -70 -2q4 63 4 107q0 43 2 67q0 29 2 45q-170 29 -279.5 125.5t-131.5 249.5z" />
<glyph unicode="%" horiz-adv-x="1554" d="M31 1090q0 72 23.5 135t67.5 111t108.5 76t148.5 28q170 0 261 -101.5t91 -265.5q0 -76 -26.5 -140.5t-72.5 -111.5t-109.5 -73.5t-137.5 -26.5q-76 0 -140.5 25.5t-112.5 73.5t-74.5 117t-26.5 153zM188 174q211 252 391.5 470t315.5 380q158 188 285 346 q29 -27 57.5 -50.5t50.5 -41.5q25 -23 49 -41q-229 -272 -412.5 -490.5t-312.5 -373.5q-151 -183 -268 -324q-35 27 -63.5 49.5t-49.5 38.5q-25 20 -43 37zM236 1069q0 -72 32.5 -124t102.5 -52q63 0 105 52t42 142q0 33 -7 64t-22.5 56.5t-41 42t-60.5 18.5 q-72 0 -111.5 -53.5t-39.5 -145.5zM813 336q0 80 25.5 148.5t72.5 118.5t114 79t146 29q74 0 138.5 -26t112.5 -74t75 -117.5t27 -157.5q0 -68 -22.5 -130.5t-65.5 -111.5t-108.5 -78.5t-151.5 -29.5q-74 0 -139.5 22.5t-114 65.5t-78 108.5t-31.5 153.5zM1028 344 q0 -92 37 -143t111 -51q72 4 105.5 60t33.5 134q0 29 -6 62.5t-21.5 63.5t-42 49.5t-65.5 19.5q-80 0 -116 -58.5t-36 -136.5z" />
<glyph unicode="&#x26;" horiz-adv-x="1374" d="M31 408q0 135 76.5 222t222.5 124q-45 20 -85 51t-69 72t-46 90t-17 104q0 82 32.5 152.5t95 123t153.5 82t210 29.5q135 0 227.5 -32.5t149.5 -92t85 -140.5t36 -175q-72 -4 -121 -7t-82 -5q-37 -2 -63 -2q0 49 -12.5 94t-39 79.5t-68.5 55t-102 20.5q-57 0 -98 -15 t-67.5 -41t-39 -58.5t-12.5 -69.5q0 -109 86 -163t240 -54v-29q0 -27 -1 -63.5t-1 -73.5v-49q-190 8 -288.5 -58.5t-98.5 -170.5q0 -90 61.5 -152.5t167.5 -62.5q66 0 121 19t95 62t62.5 113t22.5 172q0 51 -5 110.5t-19 129.5q49 2 116 8q59 4 143 12.5t199 20.5 q2 -25 5 -62q2 -31 4 -75t6 -101q-35 -4 -61.5 -5t-43.5 -3q-23 -2 -34 -4q29 -166 49 -278.5t34 -184.5q16 -82 27 -133q-70 -8 -116 -13.5t-74 -9.5q-35 -4 -54 -6q-4 47 -8 92t-8 80q-6 39 -10 76q-72 -111 -181.5 -174.5t-283.5 -63.5q-96 0 -188.5 27t-166 80 t-118.5 134t-45 192z" />
<glyph unicode="'" horiz-adv-x="421" d="M80 1438q33 0 72 -2q35 -2 83 -3t107 -3q-2 -78 -6 -168q-4 -78 -7 -180.5t-7 -219.5q-35 0 -72 2q-33 2 -76 4t-88 6v158q0 76 -2 179.5t-4 226.5z" />
<glyph unicode="(" horiz-adv-x="729" d="M92 770q0 264 88.5 512.5t268.5 443.5q20 -14 53 -34q29 -16 69.5 -42t96.5 -61q-141 -211 -211 -413.5t-70 -407.5q0 -406 281 -821q-31 -20 -68 -45q-31 -23 -71 -51.5t-80 -61.5q-180 207 -268.5 461t-88.5 520z" />
<glyph unicode=")" horiz-adv-x="733" d="M61 -70q131 195 207 404t76 432q0 195 -63.5 395.5t-204.5 411.5q55 35 94 60.5t63 41.5q30 21 48 35q170 -186 265 -434t95 -524q0 -250 -86 -502t-274 -477q-41 33 -81 61.5t-71 50.5q-37 25 -68 45z" />
<glyph unicode="*" horiz-adv-x="776" d="M25 1110q14 59 22 96t14 60q6 25 11 39q66 -27 112.5 -43.5t75.5 -26.5q35 -12 53 -18q-6 66 -10 111.5t-8 74.5q-4 33 -6 53q125 -6 174 -6h49q-10 -76 -15 -123t-10 -74q-4 -31 -6 -45q66 16 113 26.5t76 18.5q35 8 55 15q8 -66 12 -104t8 -60q4 -25 7 -35 q-68 -4 -114 -5t-75 -3q-35 -2 -53 -2q43 -57 72.5 -95t50.5 -63q23 -29 39 -47q-66 -31 -106 -49.5t-62 -28.5q-27 -12 -41 -16q-25 66 -40 107.5t-26 66.5q-10 29 -16 43q-33 -57 -54.5 -98t-37.5 -70q-18 -33 -29 -55q-49 35 -82 57.5t-55 36.5q-25 16 -39 26 q53 59 87 99.5t54 62.5q23 27 33 39q-72 10 -117 17.5t-71 11.5q-31 4 -45 6z" />
<glyph unicode="+" horiz-adv-x="882" d="M51 860q53 -2 103.5 -3t87.5 -1h82q-2 74 -2 127t-3 88q-2 39 -2 66q59 2 105 2q45 0 78 2q37 0 67 2q-2 -29 -2 -76v-94v-113h121q51 0 84 2q37 0 61 2q-4 -82 -6 -132t-2 -79q-2 -35 0 -51q-53 2 -99 3t-81 1h-76v-141q0 -53 2 -86q0 -37 2 -57q-72 0 -121 1t-79 3 q-37 2 -60 4q0 53 1 105t1 93v93q-18 0 -61 -1.5t-86 -1.5h-109q-2 68 -2 113q0 47 -2 76q-2 33 -2 53z" />
<glyph unicode="," horiz-adv-x="440" d="M43 184q0 86 45 134.5t113 48.5q90 0 143 -62.5t53 -169.5q0 -66 -16 -123t-43 -104t-57.5 -87t-59.5 -73q-16 16 -39 33q-18 14 -41.5 31.5t-52.5 35.5q16 14 35 37q16 18 33.5 47t33.5 66q-27 6 -52 20.5t-46.5 38t-35 55t-13.5 72.5z" />
<glyph unicode="-" horiz-adv-x="718" d="M51 860h133h160t168 1t156 3q-4 -82 -7.5 -133t-5.5 -80q-2 -35 -2 -49q-180 4 -293.5 6t-179.5 2h-90h-31q-2 131 -6 193q-2 37 -2 57z" />
<glyph unicode="." horiz-adv-x="442" d="M43 162q0 76 50 130t124 54q37 0 69.5 -13.5t57.5 -36t40 -56t15 -72.5q0 -78 -51 -133t-129 -55q-72 0 -124 52t-52 130z" />
<glyph unicode="/" horiz-adv-x="806" d="M-20 -102q70 195 161 450q78 219 186.5 529.5t243.5 703.5q27 -10 64 -22q33 -10 79.5 -25t112.5 -33q-33 -82 -108 -293q-33 -90 -78 -216t-105.5 -297t-138.5 -391t-174 -497q-16 6 -49 19q-29 10 -75 27.5t-119 44.5z" />
<glyph unicode="0" horiz-adv-x="1320" d="M49 733q0 166 41 301t121 232.5t196.5 150.5t268.5 53q154 0 265.5 -61t185 -161.5t109.5 -227.5t36 -258q0 -166 -34 -306.5t-107.5 -243.5t-189.5 -161.5t-277 -58.5q-150 0 -264.5 56t-192.5 156.5t-118 235.5t-40 293zM346 721q0 -115 24.5 -207t68.5 -157.5 t104.5 -100.5t132.5 -35q82 0 139 37t94 101.5t53.5 152.5t16.5 190q0 98 -15.5 196.5t-52.5 175.5t-96 125t-147 48q-78 0 -138.5 -43t-101.5 -115.5t-61.5 -168t-20.5 -199.5z" />
<glyph unicode="1" horiz-adv-x="1034" d="M47 1149q37 27 98 68q53 35 137.5 93t209.5 146q20 -8 53 -18q55 -18 166 -49q0 -119 2 -287q2 -143 4 -353t8 -487q27 0 63 -2q33 -2 79 -3t108 -1q0 -31 2 -68q0 -33 1 -79t3 -99q-104 -2 -236 -6q-113 -4 -269.5 -7t-348.5 -9v82v77q0 43 -2 84h74h96q59 0 145 2 q0 106 2 240q2 115 3 268.5t1 339.5q-23 -10 -59 -32q-33 -18 -84 -49t-129 -78q-16 27 -37 61q-16 29 -39.5 71t-50.5 95z" />
<glyph unicode="2" horiz-adv-x="1157" d="M53 854q-12 152 22 265.5t104.5 189t170 113.5t215.5 38q119 0 220.5 -29.5t175 -85t115.5 -136.5t42 -185q0 -131 -50 -218t-127 -149.5t-166 -106.5t-166 -87t-129 -92t-54 -123q76 -4 174 -6q84 -2 201 -3t264 3q0 -31 2 -70q0 -35 1 -84t1 -115q-111 4 -256 9 q-125 4 -302 8t-402 8q-6 57 -7 111q0 164 54.5 269t135.5 175t175 116t175 90t135 99t54 143q0 39 -14 78t-43 71t-75 51.5t-109 19.5q-121 0 -192.5 -91.5t-67.5 -257.5q-25 -2 -62 -6q-33 -4 -85 -6t-130 -6z" />
<glyph unicode="3" horiz-adv-x="1230" d="M49 592q37 -2 82 -6q39 -4 89 -7.5t110 -7.5q-16 -172 77 -261t248 -89q125 0 200 61.5t75 151.5q0 63 -33 102t-86 59.5t-125 26t-147 -0.5q-2 29 -4 65q-2 29 -4.5 69t-4.5 85q166 8 256 59t90 150q0 82 -61 134t-160 56q-137 6 -202.5 -81t-49.5 -228q-41 -2 -88 -6 q-41 -4 -94.5 -8.5t-112.5 -10.5q-14 119 14.5 222.5t97.5 180t178.5 121t258.5 44.5q106 0 199.5 -29t163 -80t110.5 -123t41 -160q0 -104 -44 -178t-169 -131q51 -20 99.5 -51t86.5 -72t60.5 -94t22.5 -117q0 -115 -49.5 -200.5t-131 -144t-188 -87.5t-219.5 -29 q-141 0 -260 43t-199 123t-115.5 194t-11.5 255z" />
<glyph unicode="4" horiz-adv-x="1320" d="M47 506q86 268 144.5 456.5t95.5 311.5q42 143 71 233q80 -25 131.5 -40t79.5 -23q35 -8 52 -12q-90 -272 -145.5 -448.5t-88.5 -281.5q-37 -123 -57 -188q227 -6 344 -6h114q2 158 3.5 269.5t1.5 183.5v139q143 -6 200 -6h58q-2 -160 -1 -259.5t1 -158.5v-103 q66 0 108.5 1t69.5 4q31 2 49 4q0 -76 1 -126t3 -81q2 -37 2 -58q-59 2 -104 2h-74h-64v-169q0 -66 2 -107q2 -47 5 -74q-78 -4 -130.5 -5t-82.5 -3q-37 -2 -58 -4q2 72 2 127v98q0 47 -2 86q-211 0 -349 -1t-222 -3q-98 -2 -152 -4q-4 123 -6 182q-2 37 -2 64z" />
<glyph unicode="5" horiz-adv-x="1212" d="M41 459q23 0 61 2q35 2 92.5 5t149.5 11q12 -133 83 -199.5t189 -66.5q70 0 122.5 24.5t86 64.5t51 92t17.5 110q0 123 -76 200.5t-199 77.5q-86 0 -153.5 -40t-108.5 -99q-74 6 -125 10t-86 6q-38 3 -63 5q16 227 24.5 378.5t14.5 245.5q6 111 10 174q240 -8 415 -12 t292 -8q135 -4 229 -6q-4 -61 -5 -108.5t-3 -80.5q-2 -37 -2 -65q-184 12 -310 20t-204 12q-92 6 -150 9q-14 -94 -22.5 -162t-12.5 -111q-6 -51 -10 -84q66 55 149 90t185 35q111 0 201 -35.5t154.5 -100.5t99 -155t34.5 -196q0 -127 -43 -223.5t-116.5 -162t-174 -99 t-214.5 -33.5q-276 0 -424 126t-158 349z" />
<glyph unicode="6" horiz-adv-x="1241" d="M47 692q0 190 44 337t122 245t187.5 149.5t238.5 51.5q125 0 224.5 -36t170 -98.5t109.5 -145.5t45 -177q-74 -2 -125 -4t-84 -4q-37 -2 -64 -4q-18 104 -81.5 168.5t-178.5 64.5q-74 0 -132 -35t-100 -97.5t-69 -151t-37 -197.5q63 92 176 143t234 51q100 0 189.5 -33.5 t156 -95t105.5 -149.5t39 -197q0 -102 -36 -193t-105.5 -162t-170 -112t-229.5 -41q-166 0 -285 51.5t-195.5 145.5t-112.5 228t-36 298zM360 461q0 -55 20.5 -104.5t58.5 -85t90.5 -56t115.5 -20.5q66 0 122 19t97 53t63.5 81t22.5 103q0 51 -18.5 98t-55 84t-93 58.5 t-132.5 21.5q-137 0 -214 -71.5t-77 -180.5z" />
<glyph unicode="7" horiz-adv-x="1052" d="M37 1413q289 4 476 6t298 6q129 4 201 7q0 -66 1 -114t1 -79q0 -37 2 -59q-172 -369 -285 -610.5t-178 -383.5q-78 -168 -117 -256q-145 66 -207 95q-37 18 -61 30q141 281 243.5 488t172.5 348q80 164 135 278q-170 -8 -294 -13t-210 -9q-98 -6 -168 -10q-4 137 -6 206 q-2 41 -4 70z" />
<glyph unicode="8" horiz-adv-x="1306" d="M45 428q0 111 65.5 204t188.5 138q-86 43 -142.5 124t-56.5 181q0 92 39 169t109.5 131.5t172 85t226.5 30.5q143 0 250 -36t177.5 -94t106.5 -133t36 -153q0 -115 -58.5 -185.5t-144.5 -111.5q119 -49 183.5 -148.5t64.5 -217.5q0 -88 -37 -171t-110 -147.5 t-180.5 -104.5t-248.5 -40q-156 0 -275.5 37t-200.5 101.5t-123 152.5t-42 188zM342 440q0 -49 20.5 -94t60.5 -79t99.5 -53t139.5 -19q135 0 223 62t88 169q0 39 -19.5 79t-58.5 72.5t-99.5 53t-140.5 20.5q-63 0 -120.5 -14t-100.5 -42t-67.5 -67t-24.5 -88zM373 1071 q0 -90 72.5 -145.5t203.5 -55.5q121 0 198 54.5t77 142.5q0 37 -17.5 72t-52.5 62.5t-86 45t-117 17.5q-129 0 -203.5 -55.5t-74.5 -137.5z" />
<glyph unicode="9" horiz-adv-x="1247" d="M35 965q0 115 40 208t113.5 158.5t177 101t230.5 35.5q150 0 262.5 -50t189 -143t115.5 -228.5t39 -305.5q0 -195 -43 -336t-122 -234t-191.5 -138t-251.5 -45q-229 0 -365.5 107.5t-160.5 293.5q66 8 117 13.5t85 9.5q39 4 70 6q27 -106 105.5 -152.5t166.5 -46.5 q131 0 215 105.5t101 334.5q-72 -78 -172.5 -126t-235.5 -48q-104 0 -192 32t-153.5 93.5t-102.5 150.5t-37 204zM311 985q0 -53 16.5 -102t51.5 -86t88 -58.5t127 -21.5q123 0 205 67.5t86 184.5q0 39 -13.5 85t-47 86t-89 66.5t-139.5 26.5q-78 0 -131 -23.5t-88 -60.5 t-50.5 -81t-15.5 -83z" />
<glyph unicode=":" horiz-adv-x="446" d="M43 885q0 39 14.5 72.5t40 58t59 39t70.5 14.5q74 0 125 -53t51 -127q0 -76 -49 -132.5t-125 -56.5q-37 0 -69.5 13.5t-59 38t-42 58.5t-15.5 75zM51 104q0 37 11.5 74t33 65.5t52 46t69.5 17.5q78 0 131 -54t53 -134q0 -37 -12 -70t-35.5 -59.5t-54.5 -42t-68 -15.5 q-72 0 -126 48t-54 124z" />
<glyph unicode=";" horiz-adv-x="454" d="M43 176q0 88 49 137t123 49q90 0 144.5 -62t54.5 -169q0 -66 -17.5 -122t-44 -104t-58.5 -87t-61 -70q-16 14 -38 31q-18 14 -45 30.5t-56 34.5q14 18 31 41q14 20 31.5 47t36.5 62q-55 12 -102.5 59t-47.5 123zM53 874q0 37 12.5 73t34 63.5t53 45t70.5 17.5 q78 0 129 -54t51 -134q0 -37 -12 -70t-35.5 -59.5t-54.5 -42t-68 -15.5q-35 0 -67.5 13.5t-57 37t-40 56t-15.5 69.5z" />
<glyph unicode="&#x3c;" horiz-adv-x="827" d="M31 846q164 82 287.5 144.5t209.5 105.5q98 51 172 88q18 -49 34 -90t28 -70q12 -35 24 -61q-141 -61 -239 -104.5t-160 -72.5q-72 -33 -119 -53q127 -59 219.5 -102t151.5 -72q70 -33 117 -55q-23 -51 -41.5 -93t-30.5 -71q-14 -37 -27 -64q-162 90 -275.5 151.5 t-184.5 102.5q-84 47 -142 78q-12 119 -18 178q-4 35 -6 60z" />
<glyph unicode="=" horiz-adv-x="753" d="M51 674q66 0 162 -2q82 -2 202.5 -3t286.5 1q0 -18 -2 -52q-4 -55 -6 -186q-41 0 -123 -2q-72 -2 -193.5 -4t-320.5 -6v45q0 29 -2 78t-4 131zM59 1036q104 -2 217 -2h209q111 0 215 2q-4 -82 -5 -130t-3 -72q-2 -29 -2 -39q-135 2 -248.5 4t-197.5 2h-176q-2 127 -7 184 q-2 33 -2 51z" />
<glyph unicode="&#x3e;" horiz-adv-x="823" d="M41 502q51 23 127 55q66 29 162 72t225 104q-41 18 -109 51q-59 29 -153 71t-236 108q10 27 25 61q10 29 26.5 70t34.5 90q66 -33 162 -82q82 -41 203 -102.5t285 -143.5q-2 -25 -7 -59q-4 -31 -9 -76t-9 -105q-61 -33 -154 -81q-78 -41 -196.5 -105.5t-278.5 -155.5 q-12 27 -26 64q-12 29 -31 71t-41 93z" />
<glyph unicode="?" horiz-adv-x="1230" d="M25 868q-10 152 29.5 265.5t118.5 190.5t189.5 115t243.5 38q115 0 220.5 -32t186.5 -93.5t129 -149.5t48 -198q0 -195 -122 -316t-357 -149v-25v-31q0 -18 2 -41h-90q-41 0 -97.5 -1t-122.5 -3q2 37 5 82q2 39 2 90t2 115q106 2 194 18.5t150.5 50t96.5 86t34 126.5 q0 102 -79 161.5t-198 59.5q-137 0 -217 -90t-78 -246q-25 -2 -63 -6q-35 -4 -89 -8.5t-138 -8.5zM354 172q0 86 64.5 137t150.5 51q41 0 78 -13t65.5 -37.5t46 -59.5t17.5 -78q0 -88 -62.5 -141.5t-150.5 -53.5q-90 0 -149.5 53.5t-59.5 141.5z" />
<glyph unicode="@" horiz-adv-x="1992" d="M47 463q0 203 77 368.5t206 285.5t297 185.5t348 65.5q209 0 386 -57.5t307 -167t204 -270t74 -367.5q0 -154 -34 -266.5t-93.5 -187.5t-139.5 -111.5t-174 -36.5q-49 0 -96 17.5t-86 50t-67.5 78.5t-41.5 104q-43 -90 -121.5 -134.5t-179.5 -44.5q-102 0 -180 39 t-130 103.5t-77.5 147.5t-25.5 169q0 104 31.5 197.5t88 165t132 113.5t163.5 42q78 0 137.5 -32.5t102.5 -83.5v67v41q53 -6 98 -10t78 -6q37 -4 70 -4q-10 -78 -19.5 -194t-9.5 -238q0 -61 2 -124t16.5 -112t44 -81t83.5 -32q33 0 63.5 14.5t55 49.5t39 94t14.5 150 q0 145 -43 272t-129 220t-216.5 146.5t-304.5 53.5q-160 0 -285.5 -54.5t-213.5 -148.5t-135.5 -222t-47.5 -274q0 -141 42 -256.5t122 -197.5t194.5 -126t260.5 -44q166 0 366 61q4 -18 13 -47q8 -25 20.5 -65.5t30.5 -98.5q-123 -37 -234.5 -54t-216.5 -17 q-209 0 -370.5 66.5t-271 183t-167 274.5t-57.5 340zM766 463q0 -129 52 -195.5t130 -66.5t121 71.5t43 188.5q0 129 -37 208t-125 79q-39 0 -72.5 -21.5t-58 -59.5t-39 -90.5t-14.5 -113.5z" />
<glyph unicode="A" horiz-adv-x="1257" d="M49 -8q59 211 114.5 418.5t98.5 373.5q51 193 96 369q-18 2 -61 2h-90q-53 0 -115 -2v193v84q180 -6 370.5 -11.5t350.5 -9.5q186 -6 363 -10q-2 -35 -3.5 -79t-1.5 -83v-90q-41 2 -91 3t-91 3q-51 2 -98 2q25 -82 52.5 -173t54 -184t52 -184.5t50.5 -175.5 q53 -197 108 -391q-37 -10 -77.5 -20.5t-75.5 -18.5q-39 -8 -78 -18q-10 35 -23.5 79t-27.5 85q-16 47 -33 96q-86 -4 -171 -5t-157 -3q-82 -2 -159 -2q-10 -41 -24.5 -94.5t-27.5 -102.5q-14 -57 -30 -117q-51 12 -100.5 23.5t-88.5 21.5q-45 10 -86 21zM420 467 q59 0 124.5 1t121.5 3q66 2 129 4q-23 113 -51.5 236t-55.5 227q-30 121 -63 238h-21h-8q-31 -113 -62.5 -238t-56.5 -229q-31 -123 -57 -242z" />
<glyph unicode="B" horiz-adv-x="1228" d="M78 1403q115 25 231.5 38t231.5 13q131 0 249.5 -21.5t207.5 -70.5t141.5 -130t52.5 -200q0 -86 -23.5 -150.5t-59.5 -110.5t-77 -76.5t-78 -45.5q35 -16 71 -42.5t64.5 -63.5t47 -83t18.5 -102q0 -215 -160.5 -308t-455.5 -93q-96 0 -202 7t-226 22q-2 113 -4.5 234.5 t-4.5 242.5t-5 237.5t-5 221.5q-8 245 -14 481zM338 768q87 -8 163 -8q33 0 63 1q102 5 177.5 31.5t117.5 78t42 133.5q0 59 -30.5 102t-83 71.5t-123 42t-148.5 13.5q-41 0 -84 -3t-86 -11q-4 -66 -6 -143t-2 -146q-1 -41 -1 -81.5t1 -80.5zM360 455q0 -61 1 -120 t2.5 -99.5t1.5 -38.5q49 -6 95 -10.5t87 -4.5q152 0 239.5 47t87.5 142q0 66 -39.5 103.5t-108.5 57t-163 23.5q-47 2 -98 2t-105 -2v-100z" />
<glyph unicode="C" horiz-adv-x="1228" d="M39 682q0 168 46 313.5t126 253t188.5 170t235.5 62.5q100 0 190 -33t159 -101.5t111 -174t48 -250.5q-70 0 -119 1t-84 3q-39 2 -68 2q-6 129 -61 215t-160 86q-74 0 -133 -46t-101 -123t-65.5 -176.5t-23.5 -205.5q0 -223 86 -349t245 -126q53 0 103.5 23.5t89.5 66.5 t65.5 104.5t32.5 134.5q31 0 70 -2q35 -2 82 -3t110 -5q-10 -141 -61 -246.5t-130 -175t-178.5 -104.5t-205.5 -35q-139 0 -251 49t-188.5 142.5t-117.5 227.5t-41 302z" />
<glyph unicode="D" horiz-adv-x="1253" d="M74 1397q94 16 183 25.5t175 9.5q166 0 307.5 -37t244.5 -119t162.5 -212t59.5 -316q0 -209 -54 -355.5t-152.5 -236.5t-236.5 -131t-306 -41h-10q-152 0 -324 30q-6 309 -14.5 562t-16.5 438q-8 215 -18 383zM369 1194q2 -229 3.5 -408.5t6.5 -306.5q4 -147 8 -258 q55 -7 105 -7q78 0 140 18q102 28 167 95.5t96 168t31 225.5q0 154 -44 251t-120 150.5t-177 68.5q-56 8 -117 8q-48 0 -99 -5z" />
<glyph unicode="E" horiz-adv-x="1093" d="M68 1438q188 -4 354 -6t293 -4q147 -2 272 -5q-4 -49 -4 -96q0 -45 -2 -80q-2 -41 -2 -78q-119 4 -226.5 6.5t-191.5 4.5q-98 2 -182 2q-3 -83 -3 -151v-33q1 -80 1 -138q0 -68 2 -117q86 2 168 3.5t147 3.5q78 2 148 4q0 -61 1 -104.5t3 -69.5q2 -33 2 -52 q-76 -4 -163 -7t-163 -7q-88 -4 -174 -6q2 -47 4 -97.5t6 -91.5q4 -49 7 -94h221t217 2q117 2 229 4q4 -51 6 -93t4 -75q2 -37 5 -67q-164 -6 -329 -9t-300 -5q-158 -2 -305 -5q-6 293 -14.5 555.5t-14.5 464.5q-8 236 -16 441z" />
<glyph unicode="F" horiz-adv-x="1026" d="M74 -12q2 109 5 229.5t5 242.5t5 241.5t5 228.5q6 254 8 504q195 0 359 2t284 4q141 2 256 4q-2 -51 -3 -98.5t-1 -83.5v-80q-135 -2 -251.5 -3t-204.5 -3q-102 -2 -187 -7q-4 -80 -5 -161.5t-3 -147.5q-2 -78 -2 -149q98 -2 186 -2q90 0 160 2q82 0 150 2v-72t1 -79 t2 -66.5t1 -32.5q-102 -2 -189.5 -3t-152.5 -5q-78 -4 -142 -9q-4 -66 -4 -147q0 -80 -2 -149q-2 -82 -2 -164h-73h-95q-47 0 -80.5 1t-29.5 1z" />
<glyph unicode="G" horiz-adv-x="1320" d="M45 641q0 180 47 333.5t131 265.5t200 175.5t255 63.5q111 0 210 -36t174 -105.5t119 -171t44 -232.5q0 -18 -1 -37.5t-3 -42.5l-254 14q1 16 1 31q0 73 -16 131q-20 70 -58 117t-90 70.5t-114 23.5q-78 0 -143.5 -47t-113.5 -127t-75.5 -182.5t-27.5 -212.5 q0 -221 89 -346t249 -125q111 0 186.5 61.5t97.5 163.5q-66 -2 -131 -2q-66 0 -119 -2q-63 -2 -118 -4v153q0 51 -2 109q104 -4 218.5 -6t213.5 -4q113 -2 221 -2q4 -133 9 -251t9 -210q6 -106 11 -199q-29 -4 -66 -5t-72 -3q-39 -2 -82 -4q0 23 -1 46.5t-1 45.5v49 q-31 -43 -73.5 -75.5t-94 -56t-103.5 -35t-101 -11.5q-141 0 -257 49t-198 138.5t-126 215t-44 279.5z" />
<glyph unicode="H" horiz-adv-x="1253" d="M80 1487q41 -2 90 -3t92 -1q51 -2 100 -2q0 -129 2.5 -260t4.5 -242q2 -127 4 -248q72 0 162 1t170 3l188 4q0 86 -1 199t-3 217q-2 121 -4 246h98q53 0 94 2q49 0 97 2q-10 -326 -14 -582t-9 -436q-4 -211 -6 -373q-43 2 -91 3t-89 3q-49 2 -95 5q-2 74 -3 154.5 t-3 146.5q-2 78 -4 153q-98 -2 -188 -3t-162 -5q-82 -4 -154 -6q-2 -55 -2 -141v-164v-193q-51 -4 -97 -6t-81 -2q-20 -1 -40 -1t-40 1q-2 139 -3 278.5t-2 273.5t-2 258t-3 232q-4 255 -6 486z" />
<glyph unicode="I" horiz-adv-x="481" d="M92 -18q4 170 6 342t3 330.5t2 297t1 240.5v164v65q43 -2 92.5 -3t92.5 -1q51 -2 100 -2q-4 -109 -6 -227.5t-4 -238.5t-3 -237.5t-3 -224.5q-4 -250 -6 -495q-41 -4 -89.5 -5t-89.5 -3q-49 -2 -96 -2z" />
<glyph unicode="J" horiz-adv-x="1075" d="M27 489q0 49 5 103t15 113q45 -6 91 -11.5t83 -9.5q43 -4 84 -6q-6 -47 -10 -88t-4 -78q0 -164 59.5 -236.5t157.5 -72.5q121 0 174 145.5t53 468.5q0 127 -7 281.5t-21 343.5q47 0 95 1t87 3q45 2 88 4q16 -174 26.5 -341t10.5 -321q0 -182 -21.5 -335.5t-75 -265 t-145.5 -175t-235 -63.5q-113 0 -207 32.5t-162 99t-104.5 168t-36.5 240.5z" />
<glyph unicode="K" horiz-adv-x="1136" d="M76 14q2 119 5 246t5 253t4 247t4 229q4 254 6 498q49 -4 102.5 -5t96.5 -3q51 -2 100 -2q-8 -127 -15 -261.5t-13 -244.5q-8 -129 -15 -254q96 129 189.5 260t169.5 237q88 125 170 240q39 -23 83 -50.5t81 -51.5q43 -29 84 -58q-82 -102 -167 -210.5t-157 -200.5 q-82 -107 -164 -209q70 -88 154 -190.5t157 -192.5q86 -104 174 -209q-35 -29 -70.5 -60.5t-64.5 -60.5q-35 -33 -67 -63q-88 111 -171 216t-149 187q-78 96 -147 182q-18 -20 -39 -44.5t-39 -47.5q-23 -27 -43 -53q-2 -66 -2 -123v-100q0 -51 2 -95q-41 -2 -86 -3t-86 -1 q-47 -2 -92 -2z" />
<glyph unicode="L" horiz-adv-x="952" d="M76 -6q0 125 1 255t3 255t3 242.5t3 222.5q4 244 8 471q51 -4 103 -4q53 0 94 -2q49 -2 92 -2q-8 -242 -13 -458t-10 -380q-6 -190 -8 -354q92 -2 191.5 -3t183.5 -1h193q-4 -47 -6.5 -92.5t-4.5 -82.5q-2 -43 -4 -84q-143 2 -289.5 4.5t-267.5 6.5q-141 4 -272 6z" />
<glyph unicode="M" horiz-adv-x="1626" d="M78 -53q0 109 1 231.5t3 248.5t4 250t4 236q6 264 12 531q61 4 135 10t140 10q76 6 149 13q20 -84 44 -176.5t49.5 -187.5t51 -188.5t50.5 -179.5q55 -201 117 -399q39 162 77.5 341t71.5 331q37 176 74 348q66 -4 143.5 -10t145.5 -10q78 -6 155 -11q8 -231 18.5 -460.5 t20.5 -415.5q10 -217 21 -418q-43 -2 -89 -4t-87 -6q-47 -4 -91 -6q-2 78 -5 167t-6 181t-7 183t-8 175q-8 195 -19 391q-16 -76 -36.5 -162t-42 -174t-43 -175t-41.5 -167q-49 -188 -99 -376q-53 -2 -108.5 -3.5t-98.5 -5.5q-53 -4 -98 -6q-29 90 -58.5 186.5t-58 190.5 t-55.5 184.5t-51 169.5q-55 188 -107 367q-4 -66 -7 -152t-4 -184q0 -49 -0.5 -99t0.5 -102q1 -102 1 -200q2 -231 6 -480q-41 0 -89 2.5t-89 4.5q-49 2 -96 6z" />
<glyph unicode="N" horiz-adv-x="1243" d="M74 -66q4 123 7 254t5 262.5t4 257.5t4 240q4 266 6 525q68 6 133.5 9t118.5 7q61 4 119 6q94 -274 172 -485t133 -357q66 -170 115 -295q8 184 13 363.5t9 325.5q4 168 7 321q43 2 88 4t79 4l82 4q-4 -113 -8 -230.5t-7 -233t-6 -225t-5 -206.5q-6 -229 -10 -442 q-53 -4 -111.5 -7t-110.5 -5q-59 -2 -116 -4q-100 229 -183.5 434t-142.5 360q-70 182 -129 338q-2 -96 -3 -198.5l-2 -205t-1 -202.5v-191v-415q-49 -4 -95 -6t-83 -4q-43 -3 -82 -3z" />
<glyph unicode="O" horiz-adv-x="1366" d="M47 674q0 166 42 312.5t126 256t210 173t294 63.5q135 0 245.5 -52.5t189.5 -150.5t122 -239.5t43 -319.5q0 -160 -42 -296t-125 -235.5t-204.5 -156t-279.5 -56.5q-154 0 -270.5 51.5t-194.5 143.5t-117 221t-39 285zM340 666q0 -98 18.5 -184.5t60.5 -149t107.5 -99 t159.5 -36.5q86 0 150.5 45t106.5 121.5t62.5 181t20.5 225.5q0 86 -17.5 169t-54 148.5t-95 105.5t-140.5 40q-90 0 -160 -46t-119 -124t-74.5 -180.5t-25.5 -216.5z" />
<glyph unicode="P" horiz-adv-x="1153" d="M74 -41q8 285 13 549t9 471q4 242 8 455q66 12 143 20t163 8q125 0 251.5 -24.5t229 -88t167 -174t64.5 -280.5q0 -186 -63.5 -305t-169 -184.5t-240.5 -87.5q-98 -16 -201 -15q-38 0 -77 2q0 -47 1 -103.5t1 -109.5q0 -61 2 -123q-41 -2 -92.5 -3t-98.5 -3 q-53 -2 -110 -4zM352 1208q2 -123 3 -216t2 -171v-75v-70q-1 -68 -1 -141q50 -7 97 -7q51 0 97 8q90 15 154 60t101 122t37 185q0 94 -40 158.5t-108 101.5t-156 47q-40 5 -82 5q-51 0 -104 -7z" />
<glyph unicode="Q" horiz-adv-x="1331" d="M45 682q0 172 45 318.5t127 252t199 166t262 60.5q131 0 241.5 -51.5t190.5 -147.5t126 -234.5t48 -314.5q0 -186 -51 -335.5t-152 -250.5q37 -57 66 -102t51 -76q23 -37 43 -65q-45 -27 -81 -50.5t-64 -41.5q-33 -23 -60 -41q-29 49 -55.5 95t-48.5 81q-25 41 -47 78 q-98 -35 -213 -35q-147 0 -264 53t-198 147.5t-123 221.5t-42 272zM315 711q0 -111 31 -202t83 -156.5t117.5 -101.5t137.5 -36q45 0 78 8q-16 27 -40 67t-46 75q-25 41 -53 86q39 16 74.5 33.5t64.5 31.5q33 16 59 33q27 -43 48.5 -78t37.5 -59q18 -29 33 -52 q37 68 53.5 159t16.5 206q0 96 -21.5 187.5t-64.5 161t-106.5 111.5t-145.5 42q-86 0 -152.5 -43t-112 -115t-69 -165t-23.5 -193z" />
<glyph unicode="R" horiz-adv-x="1236" d="M74 1417q104 12 210.5 21.5t211.5 9.5q135 0 259 -20.5t219 -74t152.5 -146.5t57.5 -238q0 -113 -32 -198t-86 -145.5t-126 -97t-154 -53.5q26 -147 122 -218q73 -54 173 -54q33 0 68 6q4 -29 8 -66t8 -71q6 -39 11 -82q-45 -12 -87 -17.5t-81 -5.5q-113 0 -197 43 t-141.5 115t-91 165t-46.5 195q-33 -4 -63 -4q-31 0 -55 -2q-29 -2 -56 -2q0 -66 2 -138.5t5 -133.5l4 -144q-39 -4 -87.5 -7t-91.5 -5l-102 -4v199q0 109 -1 222.5t-2 228t-3 220.5q-4 248 -8 502zM336 711q59 -10 113.5 -15.5t101.5 -5.5q164 0 262 66.5t98 212.5 q0 63 -25.5 109t-69.5 74t-105.5 41t-135.5 13h-8q-106 0 -221 -24q-4 -78 -5 -161t-3 -153q-2 -82 -2 -157z" />
<glyph unicode="S" horiz-adv-x="1224" d="M37 1010q0 98 37 182t106.5 144.5t170 95t227.5 34.5q143 0 265 -40t206 -120t120 -198q20 -66 20 -142q0 -62 -13 -132q-43 4 -88.5 9t-81.5 9l-82 10q5 35 5 68q1 50 -11 92q-18 70 -61.5 117t-107 71.5t-141.5 24.5q-63 0 -114.5 -21.5t-87 -56.5t-55 -78t-19.5 -88 q0 -82 47 -130t120.5 -78.5t165 -51t177.5 -47.5q61 -18 117.5 -45t97.5 -65.5t65.5 -94t24.5 -131.5q0 -78 -28.5 -149.5t-91 -127t-161 -89t-239.5 -33.5q-106 0 -204.5 27.5t-174.5 86t-123 146.5t-49 209h190q47 0 90 2q4 -53 25.5 -99.5t58.5 -80t89.5 -54t115.5 -20.5 q109 0 160 49t51 115q0 63 -47 99t-122 60.5t-166 46t-179 56.5q-61 25 -116.5 58.5t-97.5 82.5t-66.5 117t-24.5 160z" />
<glyph unicode="T" horiz-adv-x="1056" d="M20 1133q0 35 1.5 83t3.5 93q2 53 2 106q193 6 374 12.5t322 10.5q166 6 313 10q-2 -66 -2 -117v-90v-80q-53 2 -114 2t-115 2q-63 0 -127 2q-4 -221 -6 -435t-4 -386q-2 -201 -4 -383h-93q-49 0 -92 2q-51 2 -100 4q4 240 9 452t9 374q4 188 9 348q-45 0 -110 -2 t-126 -4q-72 -2 -150 -4z" />
<glyph unicode="U" horiz-adv-x="1226" d="M63 672q0 160 26 360.5t81 448.5q49 -6 97 -12.5t85 -10.5q43 -6 82 -12q-47 -264 -73.5 -464t-26.5 -347q0 -209 67.5 -328t221.5 -119q70 0 122 36t86.5 100.5t51 156.5t16.5 203q0 133 -20.5 301t-61.5 381q59 10 105.5 16.5t78.5 10.5q37 6 68 8q49 -217 74.5 -399.5 t25.5 -335.5q0 -190 -44 -327.5t-118.5 -226.5t-177 -132t-219.5 -43t-217 37.5t-174 124.5t-115 227.5t-41 345.5z" />
<glyph unicode="V" horiz-adv-x="1159" d="M4 1442q45 4 90 11t84 11q43 6 86 13q23 -96 49.5 -199.5t54 -207t55.5 -203t54 -187.5q61 -209 125 -408q61 219 109.5 425t83.5 368q39 188 71 356q49 -8 100.5 -15t92.5 -13q49 -8 96 -15q-23 -111 -48.5 -229.5t-54 -237t-58 -234.5t-56.5 -220q-66 -246 -133 -482 q-70 2 -139.5 6.5t-126.5 8.5q-68 4 -129 8q-92 293 -167 553t-128 459q-64 233 -111 432z" />
<glyph unicode="W" horiz-adv-x="1687" d="M16 1450q43 2 91.5 5t89.5 7q49 4 96 8q8 -78 19.5 -172t23.5 -196.5t26.5 -208t26.5 -203.5q29 -231 62 -473q41 231 76.5 437t60.5 362q29 182 53 336h125q68 0 125 2q68 0 133 2q41 -203 82 -388.5t76 -328.5q39 -168 75 -313q35 207 64 397t49 338q23 172 43 323 q47 -6 92 -12t82 -10q43 -6 84 -8q-12 -111 -28.5 -225.5t-35 -228.5t-37 -221.5t-36.5 -203.5q-41 -225 -84 -438q-70 0 -137.5 1t-120.5 3q-63 2 -123 4q-41 197 -81 383t-70 334q-37 172 -70 325q-14 -80 -30.5 -171t-33 -184t-34 -186t-33.5 -179q-37 -201 -78 -402 q-61 -2 -130 -3t-128 -5q-68 -4 -135 -6q-45 272 -85 538.5t-73 481.5q-37 250 -72 479z" />
<glyph unicode="X" horiz-adv-x="1241" d="M4 53q86 127 166 252t145 223q74 115 142 222q-78 113 -156 228.5t-139 211.5q-73 113 -139 215q41 20 88 45t88 47q49 25 96 49q61 -115 123.5 -226.5t116.5 -201.5q59 -104 116 -200q61 94 119.5 189t106.5 173l104 174q41 -16 85 -37.5t83 -42.5q45 -23 88 -47 q-70 -111 -145.5 -224.5t-141.5 -207.5q-76 -111 -147 -215q59 -84 131 -178t135 -176q72 -96 145 -189q-35 -27 -75.5 -56.5t-77.5 -55.5q-43 -31 -88 -62q-78 119 -143.5 219.5t-114.5 173.5q-57 86 -107 156q-59 -98 -121.5 -202.5t-113.5 -192.5q-59 -102 -117 -203 q-41 27 -86 51.5t-82 44.5q-43 23 -84 43z" />
<glyph unicode="Y" horiz-adv-x="1222" d="M0 1389q35 16 80 36.5t86 36.5q47 20 92 39q23 -57 50.5 -124.5t56 -138.5t59.5 -141.5t59 -135.5q68 -154 135 -310q70 141 132.5 278.5t109.5 248.5q55 127 105 243q41 -18 86 -39.5t84 -40.5q45 -23 88 -41q-29 -61 -66 -133.5t-76 -149.5t-78.5 -154t-76.5 -148 q-88 -168 -178 -338q0 -57 2 -127t4 -131l4 -144q-49 -2 -102.5 -3t-96.5 -1h-98q2 55 2 127v138v151q-35 72 -74 153t-78 164.5t-76.5 166.5t-72.5 159q-82 179 -162 359z" />
<glyph unicode="Z" horiz-adv-x="1099" d="M39 10v80t2 80q0 43 2 86q135 176 259 339t218 288q111 145 205 274q-111 0 -229.5 -1t-218 -3t-163.5 -4l-65 -2v178q0 47 2 94q195 2 376 3t323 5q164 2 309 7v-72t-1 -82t-3 -66l-2 -28q-141 -195 -265 -363t-219 -295q-111 -147 -204 -270q133 -4 246.5 -6t199.5 -4 q98 -2 184 -2q0 -31 -1 -77t-2 -87t-2 -69.5t-1 -24.5q-74 2 -154.5 4t-161.5 4t-160 4t-148 4q-166 4 -326 6z" />
<glyph unicode="[" horiz-adv-x="653" d="M102 -186q2 139 3 293.5t2.5 312.5t1.5 311v297v655q106 -2 194 -3t152 -1h133q0 -61 -1 -110t-1 -84q-2 -39 -2 -70q-31 0 -68 1t-67 1h-72v-557q0 -248 2 -428q2 -209 4 -373q23 -2 56.5 -1t66.5 1h78q-2 -29 -1 -68.5t1 -78.5v-92q-141 0 -233.5 -1t-147.5 -3 q-66 -2 -101 -2z" />
<glyph unicode="\" horiz-adv-x="806" d="M-20 1501q66 18 112.5 32.5t79.5 25.5q37 12 64 22q135 -393 243.5 -703.5t186.5 -529.5q90 -256 161 -450q-74 -27 -121 -44.5t-75 -27.5q-33 -12 -47 -19q-96 276 -174 496.5t-138.5 391.5t-105.5 297t-78 216q-75 211 -108 293z" />
<glyph unicode="]" horiz-adv-x="669" d="M66 1579v109h139q66 0 156 1t196 3q-2 -250 0 -547q0 -256 3 -595t7 -728q-35 0 -100 2q-55 2 -147.5 3t-233.5 1v86v141h66q29 0 66.5 -1t78.5 1q2 184 2 404v438q0 252 -2 543h-82q-35 0 -75 -1t-70 -1q-2 27 -2 63q-2 31 -2 78z" />
<glyph unicode="^" horiz-adv-x="956" d="M35 922q86 150 145.5 257t98.5 175q45 80 73 131q57 4 102.5 8t77.5 8q37 4 66 6q78 -154 138.5 -269.5t101.5 -195.5q49 -93 84 -161q-47 -16 -88 -31.5t-72 -26.5q-37 -12 -66 -22q-59 131 -100 223t-68 152q-31 68 -51 110q-115 -236 -168 -348q-31 -66 -51 -109 q-49 20 -90 38t-70 30q-35 14 -63 25z" />
<glyph unicode="_" horiz-adv-x="1273" d="M59 -53h377q166 0 372 1t409 5q-2 -37 -5 -78q-2 -35 -2 -80v-90q-229 2 -444 4q-92 0 -188.5 1t-190.5 1h-176h-150v74v76t-2 86z" />
<glyph unicode="`" horiz-adv-x="505" d="M20 1309q39 51 68 90t47 65q23 31 37 54q88 -72 148.5 -119t97.5 -76q42 -35 67 -53q-53 -70 -86 -115q-18 -25 -32 -45q-78 47 -142.5 83t-109.5 62q-53 31 -95 54z" />
<glyph unicode="a" d="M45 248q0 102 61.5 171.5t154.5 112.5t207 61.5t218 18.5q-8 78 -47 132.5t-133 54.5q-76 0 -125 -45t-70 -115q-35 4 -75 10q-35 4 -82.5 11.5t-102.5 13.5q18 76 56 139.5t95.5 109.5t131.5 71.5t166 25.5q100 0 183 -29.5t143.5 -88t94 -148.5t35.5 -209q2 -86 2 -180 q0 -92 3 -170q0 -90 2 -177q-35 -2 -72 -2q-33 -2 -74 -2h-82q0 14 -2 31q-2 14 -4 32.5t-4 37.5q-35 -49 -77 -81t-86 -51.5t-88 -27.5t-81 -8q-55 0 -116.5 15t-112.5 50t-85 93.5t-34 142.5zM324 264q0 -29 11 -49t29.5 -32.5t40 -18.5t41.5 -6q43 0 90.5 19.5t86.5 56 t64.5 89.5t25.5 121q-16 2 -31 2h-29q-68 0 -128 -14t-105 -38.5t-70.5 -58.5t-25.5 -71z" />
<glyph unicode="b" horiz-adv-x="1130" d="M70 1470h88q41 0 94 1.5t113 3.5q-4 -92 -9 -189q-4 -82 -7 -180t-5 -186q16 18 45 39.5t66 39t81 29.5t89 14q100 0 184 -34.5t144.5 -102t94 -167t33.5 -228.5q0 -102 -27.5 -199.5t-85 -174.5t-145.5 -123t-207 -46q-90 0 -173 34t-124 87v-47q0 -20 1.5 -44t3.5 -46 q-39 0 -80 -2q-35 -2 -77 -3t-81 -3v172q0 137 -2 343t-5 466.5t-9 545.5zM334 506q0 -143 60.5 -233.5t176.5 -94.5q96 0 164 81t68 228q0 70 -17.5 130.5t-48 104.5t-75 68.5t-97.5 24.5t-96 -24.5t-72.5 -67.5t-46 -99.5t-16.5 -117.5z" />
<glyph unicode="c" horiz-adv-x="1071" d="M47 467q0 131 41 234.5t108.5 174t157 108.5t185.5 38q174 0 302 -98.5t171 -288.5h-70q-35 0 -88 -1t-123 -3q-14 72 -60 124t-122 52q-51 0 -91 -26.5t-69 -71.5t-44 -104.5t-15 -125.5q0 -70 19.5 -124t52 -92t75.5 -57.5t92 -19.5q61 0 116.5 41t78.5 129 q37 -2 82 -4q39 -2 92 -5t115 -5q-16 -90 -59.5 -161.5t-107 -121t-144 -75t-173.5 -25.5q-121 0 -218 39t-164.5 106.5t-103.5 160.5t-36 202z" />
<glyph unicode="d" horiz-adv-x="1130" d="M47 498q0 109 33 208t93 175.5t142 122t181 45.5q39 0 80.5 -9.5t80.5 -26t73 -37t56 -44.5q-2 47 -4 115q-2 57 -4 139t-4 192q33 -2 76 -2q37 0 90 -1h37q39 0 86 1q-2 -213 -6 -442q-4 -197 -6 -437.5t-7 -482.5h-71q-35 0 -80 1t-100 1v35q0 16 1 33.5t1 38.5 q-51 -59 -134 -93t-172 -34q-90 0 -169.5 31.5t-140 94t-96.5 157t-36 219.5zM322 524q0 -70 19 -126t51 -96t76 -61.5t93 -21.5q57 0 100.5 22.5t71 61.5t40.5 90t13 109q0 68 -16 126t-47 101t-77 67.5t-103 24.5q-53 0 -94 -25.5t-69 -66.5t-43 -94t-15 -111z" />
<glyph unicode="e" horiz-adv-x="1103" d="M47 477q0 125 38 228.5t105.5 178t161.5 115.5t205 41q113 0 206 -38.5t160.5 -108.5t104.5 -166t37 -209q0 -43 -6 -86q-164 -4 -297 -9t-230 -9q-113 -6 -198 -11q2 -49 22.5 -90t54 -71.5t77.5 -47t94 -16.5q90 0 147 45t88 117q29 -4 68 -8q35 -4 82 -9.5t108 -11.5 q-23 -78 -67.5 -142.5t-108 -110.5t-143.5 -70.5t-168 -24.5q-123 0 -222.5 36t-170 101.5t-109.5 160.5t-39 216zM311 604h170h156q86 0 160 4q-10 98 -76 160.5t-158 62.5q-55 0 -98 -20t-75 -52t-51.5 -73t-27.5 -82z" />
<glyph unicode="f" horiz-adv-x="729" d="M10 922v84q16 -2 39 -2h107q2 217 91 336.5t281 119.5q92 0 209 -30q-6 -63 -9 -108.5t-5 -74.5q-2 -35 -4 -57q-75 22 -123 22h-4q-49 0 -82 -16t-52.5 -47t-26.5 -73t-7 -91l254 10q2 -29 3 -65.5t1 -71.5v-80q-63 -2 -107.5 -3t-72.5 -3q-35 -2 -56 -2q0 -88 3 -211 q2 -104 2 -258q0 -151 4 -350q-59 -2 -108.5 -3t-86.5 -1h-78q2 154 2 303v274q0 143 -2 275q-35 0 -65.5 -1t-53.5 -1q-27 -2 -51 -2q0 23 -1 57.5t-1 69.5z" />
<glyph unicode="g" horiz-adv-x="1071" d="M4 -156q0 92 48 155.5t126 104.5q-24 38 -24 93q0 45 14 84.5t43 70.5q-74 47 -122 124t-50 181q0 82 32.5 153t93 122t146.5 79.5t193 28.5q59 0 119.5 -13t115.5 -36q31 43 62 92q27 41 58.5 90.5t62.5 96.5q25 -14 55 -33q27 -16 62.5 -38.5t78.5 -51.5 q-27 -37 -59 -82q-29 -39 -65 -89t-74 -108q41 -45 66.5 -101t25.5 -128q0 -92 -35 -161.5t-96.5 -117t-142.5 -72t-173 -26.5q-92 0 -174 19q-10 -14 -13 -29.5t-3 -32.5q0 -27 12 -51q27 4 48.5 5t72.5 1q109 0 206 -20.5t170.5 -62.5t116.5 -102.5t43 -140.5 q0 -90 -37.5 -155.5t-104 -109.5t-155 -65.5t-186.5 -21.5q-143 0 -248.5 29t-174 77t-101.5 110.5t-33 131.5zM276 -145q0 -66 67 -109t185 -43q100 0 171 37t71 108q0 59 -70.5 100.5t-181.5 43.5q-70 0 -117 -12.5t-74.5 -33t-39 -45t-11.5 -46.5zM313 655 q0 -98 62.5 -154.5t161.5 -56.5q98 0 152 57.5t54 145.5q0 86 -61.5 141.5t-163.5 57.5q-90 0 -145.5 -55.5t-59.5 -135.5z" />
<glyph unicode="h" horiz-adv-x="1071" d="M70 1475q39 -2 86 -2q41 -2 92 -3h110q-2 -76 -4 -167q-2 -78 -4 -182.5t-4 -223.5q57 49 127 80t160 31q82 0 149.5 -28t117.5 -79t79 -122.5t31 -160.5q3 -113 3 -230v-58q-1 -148 -9 -285q-37 0 -80 2q-37 2 -87.5 3t-103.5 5q6 88 9 158t3 152q0 61 -1 132.5t-15 133 t-47 102.5t-96 41q-61 0 -106.5 -26.5t-76 -86t-46 -153.5t-15.5 -232q0 -68 2 -154.5t6 -162.5q-41 -2 -86 -4q-39 -2 -87 -4t-97 -4q0 356 -1 639.5t-3 480.5t-4 303z" />
<glyph unicode="i" horiz-adv-x="475" d="M49 1350q0 86 57.5 138t137.5 52q39 0 71.5 -14.5t57 -40t38 -59t13.5 -72.5q0 -92 -53.5 -144.5t-130.5 -52.5q-82 0 -136.5 50t-54.5 143zM100 -12l4 360q0 76 1 161t2.5 171t1.5 168v160q37 -2 81 -2q37 -2 86 -2h105q-2 -121 -4 -277q-2 -133 -4 -318.5t-2 -416.5 q-43 -2 -90 -2q-41 -2 -88 -2h-93z" />
<glyph unicode="j" horiz-adv-x="485" d="M-123 -358q2 35 6 75q4 35 6 81t7 100q34 -5 62 -5q18 0 33 2q40 5 65.5 27.5t37.5 64.5t12 107q4 137 5.5 244.5t1.5 208.5q0 100 -1 205.5t-3 238.5h73h84t109 2q2 -147 3 -254.5t1 -208.5v-204q0 -105 -2 -246q-2 -125 -25.5 -217t-80 -148.5t-152.5 -74.5 q-45 -9 -101 -9q-63 0 -141 11zM59 1321q0 92 56.5 146.5t134.5 54.5q82 0 138 -52.5t56 -138.5q0 -45 -16 -82t-43 -63.5t-63.5 -41t-75.5 -14.5t-73 15.5t-59.5 41t-40 60.5t-14.5 74z" />
<glyph unicode="k" horiz-adv-x="999" d="M70 1479l284 -2q0 -111 -2 -248q-2 -117 -3 -277.5t-3 -355.5q49 51 115 119q53 57 130 138t169 181q25 -27 55 -57q25 -27 58.5 -61.5t72.5 -75.5q-47 -45 -100 -97q-45 -43 -98.5 -95t-106.5 -103q37 -47 88 -111q43 -55 105.5 -135t148.5 -186q-29 -18 -65 -41 q-31 -20 -74 -49t-94 -64q-41 59 -93 129q-43 59 -102 139t-125 170q-12 -14 -24 -30q-10 -14 -27 -32t-33 -40q0 -47 -2 -100q-2 -47 -3 -109.5t-1 -136.5h-82q-37 0 -84 -1t-94 -3q0 201 -2 444q-2 209 -3 487.5t-5 602.5z" />
<glyph unicode="l" horiz-adv-x="446" d="M82 1434q55 0 106.5 -1t90.5 -3q45 -2 86 -5q-2 -117 -3.5 -240.5t-2.5 -246.5t-2 -240.5t-1 -222.5q-2 -248 -4 -483q-55 0 -103 -1t-83 -1q-41 -2 -78 -2v172t-1 214.5t-2 238.5t-1 241q-2 277 -2 580z" />
<glyph unicode="m" horiz-adv-x="1581" d="M68 1014q29 0 65 2q33 0 78 1t102 3v-37v-41q0 -23 2 -49q53 59 126 98t159 39q106 0 167.5 -49t102.5 -123q53 55 126 92t165 37q78 0 144.5 -24.5t114.5 -72.5t75 -120t27 -166q0 -78 -2 -160t-6.5 -158.5t-9.5 -146t-11 -125.5q-37 2 -80 4q-37 2 -84 4.5t-100 2.5 q10 109 19 231.5t9 271.5q0 127 -36.5 185.5t-114.5 58.5q-66 0 -102.5 -46t-54 -135t-20.5 -219q-2 -78 -2 -169q0 -61 1 -127h-80h-84q-45 0 -94 2q2 63 5 120.5t4 117t2 123t1 139.5q0 41 -7 81.5t-22.5 74.5t-42 54.5t-63.5 20.5q-55 0 -90 -29.5t-57.5 -78t-33 -109 t-14.5 -119.5t-4 -115v-90q0 -84 2 -159.5t6 -145.5q-41 -2 -86 -4q-39 -2 -87 -4t-95 -6q0 147 -4 319q-4 147 -8 340t-8 406z" />
<glyph unicode="n" horiz-adv-x="1069" d="M68 999q41 -2 82 -2h75q37 0 74 -2q-2 -29 -3 -55.5t-1 -46.5q-2 -25 -2 -45q57 68 146 114t186 46q82 0 152.5 -25t122.5 -78t82 -137t30 -205q0 -86 -1 -179t-3 -171q-2 -92 -4 -178h-95q-45 0 -84 2q-45 0 -88 2q2 94 4 163.5t2 129.5v114t-2 121q-6 209 -146 209h-3 q-117 -4 -177.5 -99t-64.5 -237q-2 -67 -2 -136q0 -52 1 -106q3 -124 7 -253q-80 4 -143 4h-123q-2 88 -4 180t-3 182t-3 176t-4 164q-4 178 -8 348z" />
<glyph unicode="o" horiz-adv-x="1165" d="M47 475q0 129 40 232.5t110.5 177t165.5 113.5t206 40q121 0 221.5 -38.5t173 -108.5t112.5 -165t40 -206q0 -127 -37 -231.5t-105.5 -178t-166.5 -113.5t-221 -40q-133 0 -234.5 42t-169 112.5t-101.5 165t-34 198.5zM326 492q0 -63 16 -121t48 -101t79 -68.5t109 -25.5 q61 0 109 26.5t82 70.5t51.5 101.5t17.5 117.5q0 68 -18.5 128t-52.5 105t-81 71.5t-106 26.5q-61 -2 -108.5 -30.5t-79.5 -74.5t-49 -104.5t-17 -121.5z" />
<glyph unicode="p" horiz-adv-x="1114" d="M68 -418q2 227 4 471q0 104 1 222t2 242t2 252t1 253q29 0 65 -2q33 -2 77 -3t102 -1l-5 -111q55 47 132 75t161 28q102 0 186.5 -40t144.5 -111t93 -169t33 -215t-31.5 -212t-90 -162.5t-141.5 -103.5t-183 -36q-90 0 -164 24.5t-119 59.5q0 -53 2 -123q2 -59 2 -145 t4 -197q-39 0 -84 2q-39 0 -89 1t-105 1zM322 485q0 -139 64.5 -222t180.5 -83q51 0 93 23.5t71 63.5t44.5 93.5t15.5 110.5q0 63 -16.5 120.5t-47.5 99.5t-74 66.5t-96 24.5q-117 0 -176 -83t-59 -214z" />
<glyph unicode="q" horiz-adv-x="1124" d="M47 508q0 111 33 207t94.5 166.5t149.5 111.5t198 41q88 0 164 -33.5t117 -76.5v24q0 12 -1 28t-3 36h57h74q47 0 112 2q2 -236 5 -473q0 -102 1 -214t3 -226.5t3 -227.5t3 -215q-39 0 -82 -2q-37 -2 -86 -3t-101 -3v149q0 63 1.5 133t1.5 125q-53 -43 -120 -70.5 t-145 -27.5q-109 0 -196.5 42t-150 115.5t-97.5 174t-35 217.5zM328 496q0 -59 14 -116.5t43 -104t73 -75t105 -28.5q59 0 103.5 27.5t74 73.5t44 102.5t14.5 116.5q0 59 -14.5 116.5t-45 103.5t-76 73.5t-106.5 27.5q-59 0 -102 -28.5t-71 -73.5t-42 -101.5t-14 -113.5z " />
<glyph unicode="r" horiz-adv-x="739" d="M72 1008q35 0 76.5 -1t78.5 -1q41 -2 84 -2q-4 -35 -5 -67t-3 -60q-2 -33 -4 -62q61 86 161.5 133t229.5 49q0 -39 1 -83t3 -83q2 -45 2 -88q-86 -4 -149.5 -22.5t-105.5 -62.5t-63.5 -117.5t-21.5 -188.5q-1 -39 -1 -81v-43q1 -64 1 -117v-125q-41 -4 -86 -4t-86 -2 q-47 -2 -92 -3q0 70 -1 152t-3 168t-3 171t-3 165q-4 186 -10 375z" />
<glyph unicode="s" horiz-adv-x="995" d="M41 696q0 88 37 153.5t97.5 110t138 67t161.5 22.5q88 0 174 -25t157 -74t119 -122t58 -171q-35 -4 -74 -8q-35 -4 -78 -9t-92 -9q-10 51 -34.5 88t-59.5 61.5t-76 35.5t-80 11q-70 0 -123 -31.5t-57 -90.5q0 -47 36 -73t91.5 -42.5t124 -28.5t133.5 -31 q49 -14 94.5 -34.5t81 -51t56 -74.5t20.5 -106q0 -78 -34.5 -135t-91 -97t-130.5 -59.5t-153 -19.5q-84 0 -166 21.5t-149.5 66.5t-114 112.5t-58.5 157.5q25 0 62 2q31 2 79 4t113 7q10 -41 34.5 -70t57.5 -49.5t70 -29.5t72 -9q55 0 94 22.5t39 65.5q0 41 -38 63.5 t-96.5 39t-129 30.5t-138.5 37q-47 16 -88 38.5t-71.5 54.5t-49 76t-18.5 103z" />
<glyph unicode="t" horiz-adv-x="839" d="M16 770q0 27 2 61q2 29 2 70q0 43 3 96q12 -2 30 -2q16 0 41 -1t60 -1q2 20 2 56v77q0 49 2 123h69q70 0 211 6q0 -23 -2 -59q-4 -61 -6 -184q33 -2 84 -2h260v-72v-80t2 -98q-49 0 -104 2q-47 2 -111.5 3t-136.5 5q-2 -70 -4 -137q-2 -57 -2 -119v-104q0 -90 39 -132 t104 -42q74 0 176 51l74 -226q-72 -41 -148.5 -63.5t-150.5 -22.5t-139.5 24t-114.5 75t-77.5 130t-28.5 189v129t2 119q0 63 2 121q-16 0 -39 2q-35 2 -101 6z" />
<glyph unicode="u" horiz-adv-x="1021" d="M57 547q0 111 10.5 231.5t26.5 249.5q49 -4 98.5 -6t88.5 -6q45 -4 88 -6q-16 -111 -29.5 -231t-13.5 -230q0 -72 8 -134.5t27.5 -108.5t53.5 -72.5t85 -26.5q80 2 133 74.5t59 224.5q2 57 3 132v49q0 49 -1 95q-2 80 -4 164q14 -1 31 -1t37 1q35 0 84 2t114 6 q4 -193 6 -363.5t7 -299.5q4 -152 6 -281q-33 -4 -72 -5t-74 -3q-41 -2 -81 -4q-2 25 -3 47q0 23 -2 41q-2 23 -2 41q-43 -63 -120.5 -102t-161.5 -39q-119 0 -197 44t-123 119.5t-63.5 178t-18.5 219.5z" />
<glyph unicode="v" d="M8 989q47 12 95.5 24.5t86.5 22.5q45 10 89 21q41 -152 82.5 -300.5t76.5 -269.5q39 -141 78 -270q47 147 90 287.5t76 251.5q37 127 72 243q39 -10 84 -20t84 -21q45 -10 90 -22q-57 -174 -111.5 -336t-97.5 -291q-51 -150 -98 -284q-51 -4 -114 -11.5t-118 -13.5 l-129 -14q-68 199 -128 378t-107 320q-54 162 -101 305z" />
<glyph unicode="w" horiz-adv-x="1480" d="M0 993l68 6q35 4 84 8.5t116 14.5q18 -100 41 -227q20 -111 48 -262.5t67 -337.5q27 92 59 204q29 96 64 226.5t76 285.5q35 -2 79 -4q39 -2 93 -2h120q20 -82 48 -182q23 -86 53.5 -205t68.5 -260q14 88 35 201q16 94 39 223t51 283q35 -6 78 -13q37 -6 85 -12t108 -14 q-20 -94 -51 -228q-27 -115 -67 -285.5t-95 -402.5q-47 2 -103 4q-47 2 -109.5 4t-131.5 7q-18 76 -41 172q-20 82 -50 194.5t-65 247.5q-20 -76 -47 -174q-23 -86 -56.5 -207t-74.5 -278q-55 -2 -115 -5q-51 -2 -116.5 -4t-133.5 -2q-29 131 -65 291q-31 137 -72 323.5 t-88 409.5z" />
<glyph unicode="x" horiz-adv-x="1034" d="M8 868q25 18 60 45q29 23 69.5 54.5t89.5 72.5q41 -55 90 -118q41 -53 96.5 -125t116.5 -150q37 47 78 107q35 49 82 117.5t101 146.5q29 -20 61 -45q29 -23 65.5 -50.5t81.5 -58.5q-39 -53 -86 -116q-41 -53 -94 -123t-112 -146q41 -49 92 -108q43 -51 101 -119 t126 -146q-25 -25 -57 -49q-29 -23 -67 -51.5t-83 -62.5q-45 59 -96 125q-43 55 -95.5 123.5t-105.5 136.5q-41 -63 -86 -131q-39 -59 -86 -134t-96 -153q-37 23 -74 45q-35 20 -76 46t-81 54q43 59 96 127q45 59 103.5 136t123.5 163q-39 45 -90 105q-43 51 -106.5 121.5 t-141.5 160.5z" />
<glyph unicode="y" horiz-adv-x="1005" d="M-2 989q35 12 78 25q37 10 86 25.5t108 31.5q33 -131 70 -274q33 -125 75 -283t89 -324l71 256q33 117 74 262.5t82 299.5q35 -10 76 -21q35 -10 84 -22.5t106 -26.5q-90 -272 -158.5 -479t-125 -360.5t-106.5 -257t-105.5 -166t-121 -89t-153.5 -26.5q-66 0 -118 15 t-86 34q4 35 12 74q6 35 12 77.5t14 89.5q41 -14 79 -22t73 -8q51 0 89 20.5t54 67.5q-53 156 -110 332q-51 152 -114.5 345t-133.5 404z" />
<glyph unicode="z" horiz-adv-x="960" d="M57 113q117 139 213.5 252.5t165.5 199.5q82 98 146 178q-119 4 -211 5q-92 0 -158 2q-76 0 -131 2q4 113 6 176q2 36 2 67q193 -4 343.5 -7t254.5 -5q123 -2 215 -4v-137v-64q-104 -129 -189 -234.5t-145 -183.5q-72 -90 -127 -162q88 2 169 5.5t145 5.5q74 2 139 4 q0 -51 1 -93t3 -73q2 -37 2 -65q-199 -4 -352.5 -7.5t-261.5 -7.5q-127 -4 -219 -6q-4 31 -5.5 58.5t-3.5 48.5q-2 23 -2 45z" />
<glyph unicode="{" horiz-adv-x="788" d="M49 594q0 43 2 92q2 41 2 94t4 111q45 -2 80 0t56.5 12t33 32.5t11.5 61.5q0 59 -12.5 148.5t-12.5 183.5q0 70 12.5 134.5t47 114.5t95 80t158.5 30q45 0 96.5 -6.5t112.5 -22.5q-2 -31 -6 -68q-6 -61 -12 -174q-135 25 -186.5 -23t-51.5 -171q0 -53 5 -113.5t5 -118.5 q0 -88 -27.5 -157.5t-117.5 -94.5q45 -12 72.5 -37.5t43 -60.5t20.5 -76t5 -86q0 -55 -4 -110.5t-4 -106.5q0 -59 11.5 -101t39 -66.5t73.5 -29t116 12.5q2 -31 6 -68q4 -33 9 -77t11 -97q-119 -27 -208 -26q-100 0 -163 29.5t-96.5 79.5t-46 114.5t-12.5 134.5 q0 80 8 157.5t8 137.5q0 45 -8 72.5t-28.5 41t-56.5 16.5t-91 1z" />
<glyph unicode="|" horiz-adv-x="530" d="M123 1538h65q66 0 207 6q0 -182 2 -430q2 -213 4 -525.5t7 -723.5h-76q-35 0 -83 1t-104 3q-2 190 -4 442q-4 217 -7 525.5t-11 701.5z" />
<glyph unicode="}" horiz-adv-x="784" d="M45 -170q6 53 10 97t8 77q4 37 7 66q55 -12 94 -13q47 0 75.5 15.5t45 42t22.5 62.5t6 77q0 53 -5 109.5t-5 111.5q0 88 25.5 161t111.5 105q-92 29 -119.5 97.5t-27.5 154.5q0 59 6 122t6 118q0 39 -6 73.5t-23.5 60.5t-47 40t-78.5 14q-39 0 -80 -8q-8 104 -13 174 q-2 37 -4 68q125 31 215 31q94 0 152.5 -29t91.5 -78t44 -111.5t11 -130.5q0 -90 -10 -176t-10 -149q0 -86 42 -106.5t138 -14.5q2 -57 3 -108.5t3 -92.5q2 -47 2 -88q-109 8 -149.5 -20.5t-40.5 -112.5q0 -66 12 -153t12 -175q0 -66 -12 -127t-47 -108t-95.5 -75 t-158.5 -28q-92 0 -211 27z" />
<glyph unicode="~" horiz-adv-x="987" d="M35 1126q8 76 34.5 134.5t62.5 98.5t79 60.5t88 20.5q61 0 107.5 -21.5t84 -48.5t75.5 -48.5t85 -21.5q84 0 113 136q18 -8 45 -17q23 -8 58.5 -20.5t84.5 -26.5q-8 -66 -29.5 -121t-55 -96t-80 -64.5t-103.5 -23.5q-59 0 -108.5 21.5t-91.5 46t-78.5 46t-71.5 21.5 q-47 0 -70.5 -37t-36.5 -102q-23 8 -51 16q-25 8 -59.5 19.5t-81.5 27.5z" />
<glyph unicode="&#xa1;" horiz-adv-x="499" d="M39 1243q0 86 64.5 137.5t150.5 51.5q82 0 144.5 -51.5t62.5 -145.5q0 -88 -62.5 -137t-150.5 -49t-148.5 53t-60.5 141zM104 -27v113v145q0 80 1 165t1 167q2 190 5 406q47 -2 98 -3t92 -1h94q0 -12 1 -60.5t2 -119t2 -157.5t3 -175q5 -209 11 -465q-74 -4 -130.5 -6 t-97.5 -5q-47 -2 -82 -4z" />
<glyph unicode="&#xa2;" horiz-adv-x="1071" d="M47 743q0 109 29.5 201t82 165t122 121t149.5 66q-2 23 -3 56.5t-3 66.5q-2 37 -6 80q43 0 92 -2q41 -2 94 -3t107 -1q-2 -29 -4 -63q-2 -29 -4.5 -69t-4.5 -85q131 -31 206 -131.5t97 -257.5h-69q-35 0 -88 -1t-123 -3q-6 39 -16.5 75.5t-30 64.5t-49 44t-72.5 16 q-53 0 -94 -28.5t-70 -78.5t-44 -117.5t-15 -143.5q0 -78 19.5 -139.5t51 -104.5t74.5 -66.5t92 -23.5q78 0 128 48t69 153q37 -4 82 -7q39 -4 92 -5t115 -5q-27 -158 -117 -263t-221 -140q2 -45 3 -86t5 -74q2 -37 6 -72q-72 -2 -127 -2q-53 0 -88 -2q-41 -2 -72 -2 q2 37 3 79t4 77q2 41 2 84q-96 18 -172 69.5t-127.5 128t-78 173.5t-26.5 208z" />
<glyph unicode="&#xa3;" horiz-adv-x="1349" d="M41 780q20 -2 47 -2h121q-12 80 -12 154q0 115 31.5 213t94 169.5t156.5 112.5t221 41q141 0 242.5 -49t164 -132t86.5 -194.5t11 -234.5q-78 2 -129 3t-82 3q-37 2 -57 2q8 178 -49.5 274.5t-184.5 96.5q-63 0 -109 -25.5t-77 -68.5t-45 -102.5t-14 -127.5q0 -45 6 -90 q66 4 121 7.5t96 7.5q47 4 84 8q4 -49 9 -92t9 -74q6 -37 11 -68q-55 -4 -103.5 -7t-83.5 -5q-41 -2 -74 -4q14 -82 37 -168t49 -147q129 -37 230 -37q51 0 87 10t57.5 37.5t30.5 78t9 130.5q25 -2 62 -4q31 -2 78 -4.5t112 -4.5q12 -88 4 -176t-45 -158.5t-106.5 -114.5 t-182.5 -44q-55 0 -102 8t-91 19.5t-90 19.5t-100 8q-92 0 -169.5 -36t-170.5 -99q-33 63 -56 108.5t-40 73.5q-20 35 -33 58q59 31 131 60.5t125 49.5q-14 35 -24 64.5t-19.5 59.5t-18.5 62.5t-20 73.5q-25 0 -59 -2q-29 -2 -70 -3t-90 -5q-2 31 -4 72q-2 35 -5 84t-7 110z " />
<glyph unicode="&#xa5;" horiz-adv-x="1249" d="M0 1425q78 29 130 50.5t85 35.5q36 17 59 27q90 -221 161 -388t120 -284q57 -135 102 -233q90 215 150.5 363.5t99.5 240.5q45 109 72 176q72 -29 121 -48t84 -32q37 -14 65 -24q-117 -233 -192.5 -389t-122.5 -254q-53 -113 -86 -181h172q53 0 106 2q-4 -66 -6 -108.5 t-4 -69.5q-2 -31 -2 -49q-80 8 -138 12t-99 9l-80 6q-2 -63 -3 -120.5t-1 -103.5v-96q-94 -4 -149.5 -7t-84.5 -5q-35 -4 -47 -4q0 86 1 152.5t1 113.5v94q-72 -10 -133.5 -21t-106.5 -20q-53 -10 -96 -18q-4 53 -6 98t-6 76q-4 37 -6 66q66 4 118 8t89 8q43 4 77 8 q-113 236 -195.5 406t-137.5 282q-66 131 -111 221z" />
<glyph unicode="&#xa7;" horiz-adv-x="1228" d="M27 111h65h84q51 0 123 2q0 -131 90 -198t254 -67q113 0 175.5 43t62.5 101q0 51 -51.5 81.5t-130 53.5t-175 41t-188.5 47q-61 18 -117.5 44t-98.5 61.5t-66.5 84t-24.5 111.5q0 88 62.5 152.5t168.5 99.5q-100 51 -146 136t-46 179q0 70 30.5 141.5t98 130t175 94.5 t261.5 36q145 -4 249.5 -42t170 -103.5t92 -157.5t18.5 -205q-82 0 -136 -1t-89 -1h-66q8 135 -68.5 208.5t-201.5 73.5q-121 0 -178 -48t-57 -115q0 -72 54 -113t137 -67.5t182.5 -46t191.5 -48.5q55 -18 104 -40.5t86 -54.5t58.5 -76t21.5 -101q0 -84 -43 -154.5 t-162 -140.5q78 -35 128.5 -101.5t50.5 -164.5q0 -82 -44.5 -148.5t-120 -114t-176 -73t-210.5 -25.5q-129 0 -242 32t-193.5 93.5t-125 151.5t-37.5 209zM330 553q0 -45 32.5 -77t94 -55.5t148.5 -41t194 -31.5q47 23 76.5 60.5t29.5 83.5q0 43 -42 74.5t-107.5 52t-145 33 t-157.5 18.5q-57 -12 -90 -44t-33 -73z" />
<glyph unicode="&#xa8;" horiz-adv-x="759" d="M20 1354q0 61 37 112.5t109 51.5t115 -46.5t43 -119.5q0 -66 -42 -112t-116 -46q-66 0 -106 45t-40 115zM436 1327q0 78 45.5 121t108.5 43q66 0 106.5 -49t40.5 -111q0 -74 -42 -117t-101 -43q-74 0 -116 45.5t-42 110.5z" />
<glyph unicode="&#xa9;" horiz-adv-x="1617" d="M49 709q0 162 49 306t144.5 251.5t238 170t330.5 62.5q176 0 316.5 -56.5t238.5 -152.5t150.5 -227t52.5 -281q0 -172 -52.5 -317.5t-153.5 -253t-247.5 -167.5t-337.5 -60q-129 0 -259 43t-234.5 132t-170 226t-65.5 324zM281 690q0 -109 35.5 -203t100 -162.5 t156 -108.5t203.5 -40q131 0 235.5 42t177.5 119t110.5 183.5t37.5 233.5q0 106 -31.5 206.5t-98 179.5t-168 126t-242.5 47q-119 0 -214.5 -45t-163 -127t-103 -197t-35.5 -254zM403 735q0 104 32 193.5t85 154t124 100.5t149 36q63 0 127.5 -24t115.5 -70t84 -112.5 t33 -154.5q-59 2 -100 2h-64h-45q0 76 -33.5 128t-93.5 52q-92 0 -143 -83t-51 -218q0 -129 46 -204.5t138 -75.5q66 0 119 39t67 129q16 0 43 -2q23 -2 57.5 -3t88.5 -1q-6 -88 -40 -154t-85 -109t-115.5 -63.5t-132.5 -20.5q-88 0 -163 32t-128 92.5t-84 145.5t-31 191z " />
<glyph unicode="&#xaa;" horiz-adv-x="907" d="M63 1022q0 74 37 123t96.5 78.5t135.5 42t153 12.5q35 0 68 -2t65 -6q0 63 -32.5 112.5t-118.5 49.5q-115 0 -156 -107q-27 8 -61 16q-29 8 -69 16.5t-85 18.5q37 100 122 165t214 65q186 0 299 -99.5t113 -289.5q0 -70 -6.5 -146t-12.5 -139.5t-11 -104.5t-3 -41 l-188 17v28v74q-49 -61 -124 -91t-145 -30q-55 0 -107 15.5t-93 45t-66 74t-25 103.5zM299 1028q0 -47 37 -67.5t74 -20.5q33 0 70.5 12.5t70.5 37t54.5 61.5t25.5 86q-55 12 -107 12q-96 0 -160.5 -34t-64.5 -87z" />
<glyph unicode="&#xab;" horiz-adv-x="929" d="M20 713q80 127 133.5 212t84.5 136q37 59 57 94q49 -29 87 -51.5t64 -36.5q32 -19 52 -29q-66 -92 -107 -150.5t-65 -94.5l-45 -68q43 -82 77.5 -143.5t59.5 -102.5q29 -49 49 -84q-57 -37 -96 -62.5t-62 -41.5q-29 -20 -45 -31q-66 123 -112 209t-74 139q-35 63 -58 105 zM444 727q78 125 125 206t76 128l49 82q51 -29 89 -48.5t65 -31.5q31 -14 51 -25q-61 -92 -101 -152.5t-63 -94.5q-27 -41 -39 -66q43 -86 76 -147.5l55 -102.5q25 -49 45 -80q-51 -29 -86.5 -51t-60.5 -39l-49 -31q-70 137 -114 224.5t-70 138.5q-31 59 -48 90z" />
<glyph unicode="&#xac;" horiz-adv-x="591" d="M86 506q2 51 4 119q2 57 3 135t1 176h115q113 0 295 6v-139v-135q0 -72 2 -140q-63 -4 -131 -8q-59 -4 -135 -8t-154 -6z" />
<glyph unicode="&#xad;" horiz-adv-x="718" d="M51 860h133h160t168 1t156 3q-4 -82 -7.5 -133t-5.5 -80q-2 -35 -2 -49q-180 4 -293.5 6t-179.5 2h-90h-31q-2 131 -6 193q-2 37 -2 57z" />
<glyph unicode="&#xae;" horiz-adv-x="1077" d="M35 952q0 113 35.5 206t100.5 159.5t156 103.5t201 37q111 0 203 -33.5t159.5 -95t104.5 -146.5t37 -190q0 -74 -20.5 -135t-59.5 -105t-92 -69t-119 -25q-53 0 -94 17.5t-68.5 45.5t-43 63.5t-21.5 74.5q-14 0 -21.5 1t-11.5 1h-6q0 -25 1 -45t1 -37q0 -18 2 -32 q-16 -2 -39 -3h-45q-27 0 -55 -2v179q0 84 -2 149q-2 76 -2 141q51 16 103.5 24.5t101.5 8.5t93 -10t75.5 -33.5t51 -60.5t19.5 -90q0 -39 -13 -70t-33.5 -53.5t-46 -39t-48.5 -24.5q4 -33 30.5 -58.5t75.5 -25.5q53 0 99.5 53.5t46.5 163.5q0 74 -24.5 134.5t-68.5 104.5 t-107.5 68.5t-143.5 24.5q-102 0 -172 -32.5t-112 -85t-60.5 -117t-18.5 -129.5q0 -332 416 -349q-4 -29 -6 -53t-4 -41q-2 -21 -4 -35q-133 2 -235.5 37t-172 96.5t-106.5 145.5t-37 186zM467 965q74 -12 127 8t53 80q0 57 -50 74.5t-126 5.5q-2 -31 -3 -61t-1 -54v-53z " />
<glyph unicode="&#xaf;" horiz-adv-x="669" d="M20 1454h291t195 2q88 2 143 4q-4 -66 -6 -108.5t-2 -67.5v-45h-291t-188 -2q-84 -2 -135 -2q0 63 -1 104t-3 68q-3 29 -3 47z" />
<glyph unicode="&#xb0;" horiz-adv-x="727" d="M51 1253q0 78 25.5 139.5t68.5 104.5t100.5 65.5t123.5 22.5q74 0 131 -26.5t96 -71.5t59.5 -105.5t20.5 -128.5q0 -74 -23.5 -133t-64.5 -100t-95.5 -63.5t-117.5 -24.5q-90 0 -151.5 30.5t-99.5 77.5t-55.5 103.5t-17.5 109.5zM223 1253q0 -72 39 -114.5t100 -46.5 q59 0 102.5 42t43.5 121q0 68 -34 120t-112 52q-57 0 -98 -48t-41 -126z" />
<glyph unicode="&#xb1;" horiz-adv-x="591" d="M86 506q2 51 4 119q2 57 3 135t1 176h115q113 0 295 6v-139v-135q0 -72 2 -140q-63 -4 -131 -8q-59 -4 -135 -8t-154 -6z" />
<glyph unicode="&#xb2;" horiz-adv-x="694" d="M41 1210q8 51 31.5 98.5t62.5 84.5t94.5 58.5t128.5 21.5q70 0 125.5 -20.5t92 -54.5t56 -77t19.5 -88q0 -68 -32.5 -118t-94.5 -87q-33 -20 -67.5 -35.5t-64.5 -32t-51.5 -34t-27.5 -41.5q92 4 164 10q61 4 112.5 7t53.5 3l4 -98q2 -43 2 -96l-586 2q-8 98 16.5 162.5 t67.5 109.5t97.5 75t101.5 54.5t79 50t32 64.5q0 35 -29 54.5t-63 19.5q-59 0 -98.5 -35t-49.5 -103q-49 12 -82 21.5t-55 13.5q-25 6 -39 10z" />
<glyph unicode="&#xb3;" horiz-adv-x="749" d="M41 932q53 6 92 10t64 8q29 4 47 6q10 -47 42.5 -83.5t96.5 -36.5q57 0 88 24.5t31 65.5q0 49 -55.5 74.5t-147.5 17.5l-2 131q96 0 136 26.5t40 73.5q0 35 -24.5 55.5t-61.5 20.5q-51 0 -77.5 -29.5t-35.5 -83.5q-55 8 -91 12.5t-58 8.5q-25 4 -39 4q2 66 28.5 112 t68.5 73.5t97.5 40t116.5 12.5q55 0 105.5 -14.5t90.5 -40t63.5 -64.5t23.5 -88q0 -53 -32 -95.5t-85 -74.5q63 -23 103.5 -74t40.5 -117q0 -55 -25 -99t-67 -73.5t-96 -46t-116 -16.5q-162 0 -254 70.5t-108 189.5z" />
<glyph unicode="&#xb4;" horiz-adv-x="501" d="M20 1264q25 18 68 53q37 29 96.5 76t149.5 118q12 -20 35 -49q18 -25 45.5 -63.5t66.5 -89.5q-41 -23 -94 -54q-47 -27 -110.5 -62.5t-141.5 -82.5q-12 20 -31 43q-16 20 -36.5 48t-47.5 63z" />
<glyph unicode="&#xb5;" horiz-adv-x="591" d="M86 506q2 51 4 119q2 57 3 135t1 176h115q113 0 295 6v-139v-135q0 -72 2 -140q-63 -4 -131 -8q-59 -4 -135 -8t-154 -6z" />
<glyph unicode="&#xb6;" horiz-adv-x="1355" d="M66 940q0 166 68.5 270.5t179 164t252 81t286.5 21.5q111 0 224.5 -8.5t207.5 -24.5q-2 -35 -4 -76q-2 -35 -5 -81t-7 -99q-55 6 -119 10t-129.5 5t-131 0t-126.5 -3q-2 -43 -3 -117.5t-1 -167.5q0 -92 1 -195.5t1 -203.5q2 -238 4 -512q-131 0 -227.5 -1t-161.5 -3 q-76 -2 -127 -4v96t2 72q0 35 2 61h100t82 2q39 0 74 2q2 29 3 62t1 63v62t-2 49q-98 16 -180 56t-140.5 99.5t-91 140.5t-32.5 179zM368 -199.5q-1 37.5 1 62.5q88 -2 184 -2h178q98 0 197 4q2 147 6 334q2 160 4 379t2 487q53 -4 98 -6t80 -2q39 -2 76 0q-2 -203 -4 -434 q-2 -199 -1 -453t5 -530q-156 2 -305 4q-63 0 -132 1t-136.5 0t-131 -2t-116.5 -3q0 47 -2 88q-2 35 -3 72.5z" />
<glyph unicode="&#xb7;" horiz-adv-x="446" d="M51 723q0 37 11.5 74t33 65.5t52 46t69.5 17.5q78 0 131 -54.5t53 -134.5q0 -37 -12 -69.5t-35.5 -59t-54.5 -42t-68 -15.5q-72 0 -124 48t-56 124z" />
<glyph unicode="&#xb8;" horiz-adv-x="505" d="M20 -362q8 37 13.5 65.5t9.5 48.5q4 23 8 39q53 -23 105.5 -35t91.5 -12q59 0 61 27q0 14 -18.5 22t-48.5 8q-25 0 -52 -6q-12 4 -26 10q-14 4 -32.5 11.5t-43.5 17.5q2 20 6 47q4 23 9.5 54.5t11.5 72.5q49 -4 79.5 -6t47.5 -2q20 -2 28 0q-2 -23 -3 -36t-1 -23v-17 q43 0 82 -9t68.5 -28.5t48 -50.5t18.5 -72q0 -84 -64.5 -131t-168.5 -47q-106 0 -230 52z" />
<glyph unicode="&#xb9;" horiz-adv-x="643" d="M41 1348q90 35 148.5 57t93.5 37q41 16 63 26q23 -10 41.5 -16t28.5 -10q12 -6 20 -8q-4 -141 -5 -238.5t-3 -163.5q-2 -76 -2 -125q35 2 65.5 3t53.5 3q25 2 45 5q2 -49 4 -85t4 -59q2 -27 4 -45q-168 -14 -269.5 -22.5t-156.5 -12.5q-66 -6 -94 -8q-4 51 -5 85t-3 52 q-2 23 -2 33q45 2 76.5 4t54.5 4q25 2 41 4q-4 113 -6 181.5t-5 105.5q-2 43 -2 59q-47 -12 -78.5 -21t-50.5 -13q-23 -8 -32 -11q-10 53 -14.5 87t-8.5 55q-4 23 -6 37z" />
<glyph unicode="&#xba;" horiz-adv-x="962" d="M61 1174q0 98 32 177t88.5 133t134 83.5t167.5 29.5q92 0 169 -30.5t132.5 -85t86 -127t30.5 -156.5q0 -94 -27.5 -172t-80 -134t-128 -88t-171.5 -32q-109 0 -190 31t-134 85t-81 128t-28 158zM297 1184q0 -100 48 -169t134 -69q43 0 77 18.5t58.5 49t37 71.5t12.5 86 q0 106 -49.5 178t-137.5 72q-43 0 -76.5 -19.5t-56 -52t-35 -75.5t-12.5 -90z" />
<glyph unicode="&#xbb;" horiz-adv-x="929" d="M31 1038q20 10 51 29q27 14 63.5 36.5t87.5 51.5q20 -35 58 -94q31 -51 83 -136t134 -212q-23 -41 -57 -105q-29 -53 -75 -139t-112 -209q-18 10 -45 31q-25 16 -62.5 41.5t-95.5 62.5q20 35 50 84q25 41 58.5 102.5t78.5 143.5l-45 68q-25 37 -67 95t-105 150zM455 1038 q20 10 51 25q27 12 63.5 31.5t89.5 48.5q14 -29 48 -82q29 -47 76.5 -128t125.5 -206q-16 -31 -47 -90q-27 -51 -72 -138t-112 -225l-49 31q-25 16 -62 39t-86 51q18 31 45 80q23 41 55.5 102.5t75.5 147.5q-14 25 -41 66q-23 35 -61.5 95t-99.5 152z" />
<glyph unicode="&#xbc;" horiz-adv-x="1640" d="M41 1348q90 35 148.5 57t93.5 37q41 16 63 26q23 -10 41.5 -16t28.5 -10q12 -6 20 -8q-4 -141 -5 -238.5t-3 -163.5q-2 -76 -2 -125q35 2 65.5 3t53.5 3q25 2 45 5q2 -49 4 -85t4 -59q2 -27 4 -45q-168 -14 -269.5 -22.5t-156.5 -12.5q-66 -6 -94 -8q-4 51 -5 85t-3 52 q-2 23 -2 33q45 2 76.5 4t54.5 4q25 2 41 4q-4 113 -6 181.5t-5 105.5q-2 43 -2 59q-47 -12 -78.5 -21t-50.5 -13q-23 -8 -32 -11q-10 53 -14.5 87t-8.5 55q-4 23 -6 37zM295 16q186 326 344 604.5t275 483.5q134 239 245 436q41 -29 73 -48t52 -32q23 -14 39 -24 q-242 -416 -407.5 -701.5t-268.5 -466.5q-121 -211 -196 -340q-70 43 -113 66q-23 12 -43 22zM922 324q37 125 62.5 211t41.5 139l29 101q43 -10 75 -17.5t54 -11.5q25 -6 43 -10q-35 -129 -55.5 -209t-32.5 -125q-14 -53 -20 -78q55 -2 93 -3t62 -1h45q4 70 4 121 q0 53 2 88q0 41 2 69q47 -2 80 -1t56 1h43q-2 -51 -1 -92t1 -69q0 -35 2 -60h37q16 0 26 2q12 0 23 2q2 -55 2 -90t2 -55q0 -23 2 -35q-23 0 -38 -1t-26 -1q-10 -2 -18 -2v-102q0 -37 2 -60q0 -25 2 -35q-59 -4 -97 -5t-61 -3q-25 -2 -37 -2q-2 47 -2 80t-2 53q-2 23 -2 35 q-106 -4 -178 -5t-117 -3q-53 -2 -84 -4q-6 51 -9 86t-7 55q-4 23 -4 37z" />
<glyph unicode="&#xbd;" horiz-adv-x="1591" d="M41 1348q90 35 148.5 57t93.5 37q41 16 63 26q23 -10 41.5 -16t28.5 -10q12 -6 20 -8q-4 -141 -5 -238.5t-3 -163.5q-2 -76 -2 -125q35 2 65.5 3t53.5 3q25 2 45 5q2 -49 4 -85t4 -59q2 -27 4 -45q-168 -14 -269.5 -22.5t-156.5 -12.5q-66 -6 -94 -8q-4 51 -5 85t-3 52 q-2 23 -2 33q45 2 76.5 4t54.5 4q25 2 41 4q-4 113 -6 181.5t-5 105.5q-2 43 -2 59q-47 -12 -78.5 -21t-50.5 -13q-23 -8 -32 -11q-10 53 -14.5 87t-8.5 55q-4 23 -6 37zM295 16q186 326 344 604.5t275 483.5q134 239 245 436q41 -29 73 -48t52 -32q23 -14 39 -24 q-242 -416 -407.5 -701.5t-268.5 -466.5q-121 -211 -196 -340q-70 43 -113 66q-23 12 -43 22zM938 497q8 51 31.5 98.5t62.5 84.5t94.5 58.5t128.5 21.5q70 0 125.5 -20.5t92 -54.5t56 -77t19.5 -88q0 -68 -32.5 -118t-94.5 -87q-33 -20 -67.5 -35.5t-64.5 -32t-51.5 -34 t-27.5 -41.5q92 4 164 10q61 4 112.5 7t53.5 3l4 -98q2 -43 2 -96l-586 2q-8 98 16.5 162.5t67.5 109.5t97.5 75t101.5 54.5t79 50t32 64.5q0 35 -29 54.5t-63 19.5q-59 0 -98.5 -35t-49.5 -103q-49 12 -82 21.5t-55 13.5q-25 6 -39 10z" />
<glyph unicode="&#xbe;" horiz-adv-x="1699" d="M41 932q53 6 92 10t64 8q29 4 47 6q10 -47 42.5 -83.5t96.5 -36.5q57 0 88 24.5t31 65.5q0 49 -55.5 74.5t-147.5 17.5l-2 131q96 0 136 26.5t40 73.5q0 35 -24.5 55.5t-61.5 20.5q-51 0 -77.5 -29.5t-35.5 -83.5q-55 8 -91 12.5t-58 8.5q-25 4 -39 4q2 66 28.5 112 t68.5 73.5t97.5 40t116.5 12.5q55 0 105.5 -14.5t90.5 -40t63.5 -64.5t23.5 -88q0 -53 -32 -95.5t-85 -74.5q63 -23 103.5 -74t40.5 -117q0 -55 -25 -99t-67 -73.5t-96 -46t-116 -16.5q-162 0 -254 70.5t-108 189.5zM344 16q186 326 344 604.5t275 483.5q134 239 245 436 q41 -29 73 -48t52 -32q23 -14 39 -24q-242 -416 -407.5 -701.5t-268.5 -466.5q-121 -211 -196 -340q-70 43 -113 66q-23 12 -43 22zM981 324q37 125 62.5 211t41.5 139l29 101q43 -10 75 -17.5t54 -11.5q25 -6 43 -10q-35 -129 -55.5 -209t-32.5 -125q-14 -53 -20 -78 q55 -2 93 -3t62 -1h45q4 70 4 121q0 53 2 88q0 41 2 69q47 -2 80 -1t56 1h43q-2 -51 -1 -92t1 -69q0 -35 2 -60h37q16 0 26 2q12 0 23 2q2 -55 2 -90t2 -55q0 -23 2 -35q-23 0 -38 -1t-26 -1q-10 -2 -18 -2v-102q0 -37 2 -60q0 -25 2 -35q-59 -4 -97 -5t-61 -3 q-25 -2 -37 -2q-2 47 -2 80t-2 53q-2 23 -2 35q-106 -4 -178 -5t-117 -3q-53 -2 -84 -4q-6 51 -9 86t-7 55q-4 23 -4 37z" />
<glyph unicode="&#xbf;" horiz-adv-x="1230" d="M41 455q0 195 122 315.5t357 149.5v24q0 12 -1 30.5t-1 41.5h107q47 0 100 1t102 3q-2 -37 -4 -82q-2 -39 -3 -91t-1 -114q-106 -2 -193 -18.5t-149.5 -50t-97.5 -86t-35 -125.5q0 -102 79 -162t198 -60q139 0 214.5 87.5t77.5 248.5q25 0 64 4q35 4 90 8.5t139 10.5 q10 -154 -29.5 -267.5t-118.5 -189.5t-190.5 -113.5t-242.5 -37.5q-115 0 -220.5 31.5t-186.5 93t-129 149.5t-48 199zM455 1286q0 88 62.5 141.5t150.5 53.5q90 0 149.5 -53.5t59.5 -141.5q-4 -86 -66.5 -137t-148.5 -51q-41 0 -78 13t-66 38t-46 59.5t-17 77.5z" />
<glyph unicode="&#xc0;" horiz-adv-x="1257" d="M49 -8q59 211 114.5 418.5t98.5 373.5q51 193 96 369q-18 2 -61 2h-90q-53 0 -115 -2v193v84q180 -6 370.5 -11.5t350.5 -9.5q186 -6 363 -10q-2 -35 -3.5 -79t-1.5 -83v-90q-41 2 -91 3t-91 3q-51 2 -98 2q25 -82 52.5 -173t54 -184t52 -184.5t50.5 -175.5 q53 -197 108 -391q-37 -10 -77.5 -20.5t-75.5 -18.5q-39 -8 -78 -18q-10 35 -23.5 79t-27.5 85q-16 47 -33 96q-86 -4 -171 -5t-157 -3q-82 -2 -159 -2q-10 -41 -24.5 -94.5t-27.5 -102.5q-14 -57 -30 -117q-51 12 -100.5 23.5t-88.5 21.5q-45 10 -86 21zM296 1706 q39 51 68 90t47 65q23 31 37 54q88 -72 148.5 -119t97.5 -76q42 -35 67 -53q-53 -70 -86 -115q-18 -25 -32 -45q-78 47 -142.5 83t-109.5 62q-53 31 -95 54zM420 467q59 0 124.5 1t121.5 3q66 2 129 4q-23 113 -51.5 236t-55.5 227q-30 121 -63 238h-21h-8 q-31 -113 -62.5 -238t-56.5 -229q-31 -123 -57 -242z" />
<glyph unicode="&#xc1;" horiz-adv-x="1257" d="M49 -8q59 211 114.5 418.5t98.5 373.5q51 193 96 369q-18 2 -61 2h-90q-53 0 -115 -2v193v84q180 -6 370.5 -11.5t350.5 -9.5q186 -6 363 -10q-2 -35 -3.5 -79t-1.5 -83v-90q-41 2 -91 3t-91 3q-51 2 -98 2q25 -82 52.5 -173t54 -184t52 -184.5t50.5 -175.5 q53 -197 108 -391q-37 -10 -77.5 -20.5t-75.5 -18.5q-39 -8 -78 -18q-10 35 -23.5 79t-27.5 85q-16 47 -33 96q-86 -4 -171 -5t-157 -3q-82 -2 -159 -2q-10 -41 -24.5 -94.5t-27.5 -102.5q-14 -57 -30 -117q-51 12 -100.5 23.5t-88.5 21.5q-45 10 -86 21zM420 467 q59 0 124.5 1t121.5 3q66 2 129 4q-23 113 -51.5 236t-55.5 227q-30 121 -63 238h-21h-8q-31 -113 -62.5 -238t-56.5 -229q-31 -123 -57 -242zM495 1655q25 18 68 53q37 29 96.5 76t149.5 118q12 -20 35 -49q18 -25 45.5 -63.5t66.5 -89.5q-41 -23 -94 -54 q-47 -27 -110.5 -62.5t-141.5 -82.5q-12 20 -31 43q-16 20 -36.5 48t-47.5 63z" />
<glyph unicode="&#xc2;" horiz-adv-x="1257" d="M49 -8q59 211 114.5 418.5t98.5 373.5q51 193 96 369q-18 2 -61 2h-90q-53 0 -115 -2v193v84q180 -6 370.5 -11.5t350.5 -9.5q186 -6 363 -10q-2 -35 -3.5 -79t-1.5 -83v-90q-41 2 -91 3t-91 3q-51 2 -98 2q25 -82 52.5 -173t54 -184t52 -184.5t50.5 -175.5 q53 -197 108 -391q-37 -10 -77.5 -20.5t-75.5 -18.5q-39 -8 -78 -18q-10 35 -23.5 79t-27.5 85q-16 47 -33 96q-86 -4 -171 -5t-157 -3q-82 -2 -159 -2q-10 -41 -24.5 -94.5t-27.5 -102.5q-14 -57 -30 -117q-51 12 -100.5 23.5t-88.5 21.5q-45 10 -86 21zM270 1661 q16 14 50 45q29 27 74.5 72t121.5 117q35 -2 74 -2q35 -2 76 -3q43 0 88 -4q20 -20 55 -51q29 -27 75 -66.5t116 -95.5q-16 -18 -39 -41q-18 -20 -47 -48.5t-64 -67.5q-29 27 -65 61q-31 29 -73 67t-89 83q-18 -18 -45 -50q-23 -27 -60 -67.5t-90 -102.5q-18 14 -41 37 q-20 18 -49 47t-68 70zM420 467q59 0 124.5 1t121.5 3q66 2 129 4q-23 113 -51.5 236t-55.5 227q-30 121 -63 238h-21h-8q-31 -113 -62.5 -238t-56.5 -229q-31 -123 -57 -242z" />
<glyph unicode="&#xc3;" horiz-adv-x="1257" d="M49 -8q59 211 114.5 418.5t98.5 373.5q51 193 96 369q-18 2 -61 2h-90q-53 0 -115 -2v193v84q180 -6 370.5 -11.5t350.5 -9.5q186 -6 363 -10q-2 -35 -3.5 -79t-1.5 -83v-90q-41 2 -91 3t-91 3q-51 2 -98 2q25 -82 52.5 -173t54 -184t52 -184.5t50.5 -175.5 q53 -197 108 -391q-37 -10 -77.5 -20.5t-75.5 -18.5q-39 -8 -78 -18q-10 35 -23.5 79t-27.5 85q-16 47 -33 96q-86 -4 -171 -5t-157 -3q-82 -2 -159 -2q-10 -41 -24.5 -94.5t-27.5 -102.5q-14 -57 -30 -117q-51 12 -100.5 23.5t-88.5 21.5q-45 10 -86 21zM268 1616 q23 117 78.5 186.5t145.5 69.5q41 0 74.5 -15t64.5 -33.5t58.5 -34t58.5 -15.5q35 0 56.5 25.5t27.5 60.5q27 -10 55 -21q25 -10 55.5 -21.5t63.5 -25.5q-4 -47 -22.5 -91t-47.5 -79.5t-66.5 -57t-82.5 -21.5q-47 0 -82 15t-63.5 34.5t-55.5 35t-57 15.5q-35 0 -55.5 -24.5 t-32.5 -65.5q-23 8 -50 18q-23 8 -54.5 19.5t-68.5 25.5zM420 467q59 0 124.5 1t121.5 3q66 2 129 4q-23 113 -51.5 236t-55.5 227q-30 121 -63 238h-21h-8q-31 -113 -62.5 -238t-56.5 -229q-31 -123 -57 -242z" />
<glyph unicode="&#xc4;" horiz-adv-x="1257" d="M49 -8q59 211 114.5 418.5t98.5 373.5q51 193 96 369q-18 2 -61 2h-90q-53 0 -115 -2v193v84q180 -6 370.5 -11.5t350.5 -9.5q186 -6 363 -10q-2 -35 -3.5 -79t-1.5 -83v-90q-41 2 -91 3t-91 3q-51 2 -98 2q25 -82 52.5 -173t54 -184t52 -184.5t50.5 -175.5 q53 -197 108 -391q-37 -10 -77.5 -20.5t-75.5 -18.5q-39 -8 -78 -18q-10 35 -23.5 79t-27.5 85q-16 47 -33 96q-86 -4 -171 -5t-157 -3q-82 -2 -159 -2q-10 -41 -24.5 -94.5t-27.5 -102.5q-14 -57 -30 -117q-51 12 -100.5 23.5t-88.5 21.5q-45 10 -86 21zM270 1714 q0 61 37 112.5t109 51.5t115 -46.5t43 -119.5q0 -66 -42 -112t-116 -46q-66 0 -106 45t-40 115zM420 467q59 0 124.5 1t121.5 3q66 2 129 4q-23 113 -51.5 236t-55.5 227q-30 121 -63 238h-21h-8q-31 -113 -62.5 -238t-56.5 -229q-31 -123 -57 -242zM686 1687q0 78 45.5 121 t108.5 43q66 0 106.5 -49t40.5 -111q0 -74 -42 -117t-101 -43q-74 0 -116 45.5t-42 110.5z" />
<glyph unicode="&#xc5;" horiz-adv-x="1257" d="M49 -8q59 211 114.5 418.5t98.5 373.5q51 193 96 369q-18 2 -61 2h-90q-53 0 -115 -2v193v84q180 -6 370.5 -11.5t350.5 -9.5q186 -6 363 -10q-2 -35 -3.5 -79t-1.5 -83v-90q-41 2 -91 3t-91 3q-51 2 -98 2q25 -82 52.5 -173t54 -184t52 -184.5t50.5 -175.5 q53 -197 108 -391q-37 -10 -77.5 -20.5t-75.5 -18.5q-39 -8 -78 -18q-10 35 -23.5 79t-27.5 85q-16 47 -33 96q-86 -4 -171 -5t-157 -3q-82 -2 -159 -2q-10 -41 -24.5 -94.5t-27.5 -102.5q-14 -57 -30 -117q-51 12 -100.5 23.5t-88.5 21.5q-45 10 -86 21zM392 1755 q0 106 67.5 166.5t163.5 60.5q68 0 116 -21.5t77.5 -55.5t43 -75t13.5 -77q0 -55 -19.5 -98.5t-53.5 -73t-78 -46t-95 -16.5q-57 0 -101 18.5t-74 51.5t-45 76t-15 90zM420 467q59 0 124.5 1t121.5 3q66 2 129 4q-23 113 -51.5 236t-55.5 227q-30 121 -63 238h-21h-8 q-31 -113 -62.5 -238t-56.5 -229q-31 -123 -57 -242zM533 1753q0 -41 24.5 -73t75.5 -32q43 0 69.5 31t26.5 76q0 41 -26.5 67.5t-69.5 28.5q-41 0 -70.5 -23.5t-29.5 -74.5z" />
<glyph unicode="&#xc6;" horiz-adv-x="1812" d="M41 45q82 225 153.5 429t124.5 360q63 182 115 340q-41 0 -98 1t-111 3q-63 2 -129 4q0 51 1 98t1 84q0 43 2 80q319 -8 614.5 -11t524.5 -8q266 -4 500 -6q-2 -57 -3 -102t-1 -80v-70q-141 4 -258 6.5t-203 4.5q-100 2 -180 2q-2 -49 -2 -123v-139q0 -80 2 -164 q82 0 174 2t170 4q92 2 180 4q0 -61 1 -106.5t3 -73.5q2 -35 2 -56q-113 -4 -205 -7t-157 -7q-78 -4 -140 -6l4 -94t7 -86q4 -45 6 -88q109 0 217 1t196 5q102 4 199 8q4 -53 6 -96t4 -74q2 -37 4 -66q-213 -2 -376.5 -3t-276.5 -3q-131 -2 -227 -4q0 53 1 100.5t1 81.5v78 q-86 -4 -168 -5t-148 -3q-78 -2 -147 -2q-27 -66 -45.5 -119t-32.5 -92q-16 -45 -27 -80q-68 16 -120 30.5t-86 25.5q-41 12 -72 22zM463 481q59 0 126.5 1t127.5 1h137q-4 158 -7 285t-7 217q-4 104 -6 186q-35 2 -63 5.5t-48 5.5q-23 2 -43 4q-47 -141 -87 -267t-69 -225 q-35 -113 -61 -213z" />
<glyph unicode="&#xc7;" horiz-adv-x="1228" d="M39 682q0 168 46 313.5t126 253t188.5 170t235.5 62.5q100 0 190 -33t159 -101.5t111 -174t48 -250.5q-70 0 -119 1t-84 3q-39 2 -68 2q-6 129 -61 215t-160 86q-74 0 -133 -46t-101 -123t-65.5 -176.5t-23.5 -205.5q0 -223 86 -349t245 -126q53 0 103.5 23.5t89.5 66.5 t65.5 104.5t32.5 134.5q31 0 70 -2q35 -2 82 -3t110 -5q-10 -137 -58 -240.5t-123 -173t-170 -106.5t-197 -41q-2 -16 -2 -27v-18v-14q43 0 81.5 -9.5t68.5 -29t48.5 -50t18.5 -71.5q0 -84 -64.5 -131t-169.5 -47q-106 0 -229 51q8 37 13 65.5t9 49.5q4 23 8 39 q53 -23 105.5 -35.5t91.5 -12.5q59 0 62 27q0 14 -18.5 22.5t-49.5 8.5q-25 0 -51 -6q-12 4 -27 10q-14 4 -32.5 11t-43.5 18l6 43q4 23 8.5 51t10.5 67q-111 20 -198 78t-147.5 149t-92 213t-31.5 269z" />
<glyph unicode="&#xc8;" horiz-adv-x="1093" d="M68 1438q188 -4 354 -6t293 -5q147 -2 272 -4q-4 -49 -4 -96q0 -45 -2 -80q-2 -41 -2 -78q-119 4 -226.5 6.5t-191.5 4.5q-98 2 -182 2q-4 -104 -3 -184t1 -138q0 -68 2 -117q86 2 168 3.5t147 3.5q78 2 148 4q0 -61 1 -104.5t3 -69.5q2 -33 2 -52q-76 -4 -163 -7 t-163 -7q-88 -4 -174 -6q2 -47 4 -97.5t6 -91.5q4 -49 7 -94h221t217 2q117 2 229 4q4 -51 6 -93t4 -75q2 -37 5 -67q-164 -6 -329 -9t-300 -5q-158 -2 -305 -5q-6 293 -14.5 555.5t-14.5 464.5q-8 236 -16 441zM215 1727q39 51 68 90t47 65q23 31 37 54q88 -72 148.5 -119 t97.5 -76q42 -35 67 -53q-53 -70 -86 -115q-18 -25 -32 -45q-78 47 -142.5 83t-109.5 62q-53 31 -95 54z" />
<glyph unicode="&#xc9;" horiz-adv-x="1093" d="M68 1438q188 -4 354 -6t293 -5q147 -2 272 -4q-4 -49 -4 -96q0 -45 -2 -80q-2 -41 -2 -78q-119 4 -226.5 6.5t-191.5 4.5q-98 2 -182 2q-4 -104 -3 -184t1 -138q0 -68 2 -117q86 2 168 3.5t147 3.5q78 2 148 4q0 -61 1 -104.5t3 -69.5q2 -33 2 -52q-76 -4 -163 -7 t-163 -7q-88 -4 -174 -6q2 -47 4 -97.5t6 -91.5q4 -49 7 -94h221t217 2q117 2 229 4q4 -51 6 -93t4 -75q2 -37 5 -67q-164 -6 -329 -9t-300 -5q-158 -2 -305 -5q-6 293 -14.5 555.5t-14.5 464.5q-8 236 -16 441zM413 1682q25 18 68 53q37 29 96.5 76t149.5 118 q12 -20 35 -49q18 -25 45.5 -63.5t66.5 -89.5q-41 -23 -94 -54q-47 -27 -110.5 -62.5t-141.5 -82.5q-12 20 -31 43q-16 20 -36.5 48t-47.5 63z" />
<glyph unicode="&#xca;" horiz-adv-x="1093" d="M68 1438q188 -4 354 -6t293 -5q147 -2 272 -4q-4 -49 -4 -96q0 -45 -2 -80q-2 -41 -2 -78q-119 4 -226.5 6.5t-191.5 4.5q-98 2 -182 2q-4 -104 -3 -184t1 -138q0 -68 2 -117q86 2 168 3.5t147 3.5q78 2 148 4q0 -61 1 -104.5t3 -69.5q2 -33 2 -52q-76 -4 -163 -7 t-163 -7q-88 -4 -174 -6q2 -47 4 -97.5t6 -91.5q4 -49 7 -94h221t217 2q117 2 229 4q4 -51 6 -93t4 -75q2 -37 5 -67q-164 -6 -329 -9t-300 -5q-158 -2 -305 -5q-6 293 -14.5 555.5t-14.5 464.5q-8 236 -16 441zM188 1675q16 14 50 45q29 27 74.5 72t121.5 117q35 -2 74 -2 q35 -2 76 -3q43 0 88 -4q20 -20 55 -51q29 -27 75 -66.5t116 -95.5q-16 -18 -39 -41q-18 -20 -47 -48.5t-64 -67.5q-29 27 -65 61q-31 29 -73 67t-89 83q-18 -18 -45 -50q-23 -27 -60 -67.5t-90 -102.5q-18 14 -41 37q-20 18 -49 47t-68 70z" />
<glyph unicode="&#xcb;" horiz-adv-x="1093" d="M68 1438q188 -4 354 -6t293 -5q147 -2 272 -4q-4 -49 -4 -96q0 -45 -2 -80q-2 -41 -2 -78q-119 4 -226.5 6.5t-191.5 4.5q-98 2 -182 2q-4 -104 -3 -184t1 -138q0 -68 2 -117q86 2 168 3.5t147 3.5q78 2 148 4q0 -61 1 -104.5t3 -69.5q2 -33 2 -52q-76 -4 -163 -7 t-163 -7q-88 -4 -174 -6q2 -47 4 -97.5t6 -91.5q4 -49 7 -94h221t217 2q117 2 229 4q4 -51 6 -93t4 -75q2 -37 5 -67q-164 -6 -329 -9t-300 -5q-158 -2 -305 -5q-6 293 -14.5 555.5t-14.5 464.5q-8 236 -16 441zM188 1725q0 61 37 112.5t109 51.5t115 -46.5t43 -119.5 q0 -66 -42 -112t-116 -46q-66 0 -106 45t-40 115zM604 1698q0 78 45.5 121t108.5 43q66 0 106.5 -49t40.5 -111q0 -74 -42 -117t-101 -43q-74 0 -116 45.5t-42 110.5z" />
<glyph unicode="&#xcc;" horiz-adv-x="481" d="M-91 1710q39 51 68 90t47 65q23 31 37 54q88 -72 148.5 -119t97.5 -76q42 -35 67 -53q-53 -70 -86 -115q-18 -25 -32 -45q-78 47 -142.5 83t-109.5 62q-53 31 -95 54zM92 -18q4 170 6 342t3 330.5t2 297t1 240.5v164v65q43 -2 92.5 -3t92.5 -1q51 -2 100 -2 q-4 -109 -6 -227.5t-4 -238.5t-3 -237.5t-3 -224.5q-4 -250 -6 -495q-41 -4 -89.5 -5t-89.5 -3q-49 -2 -96 -2z" />
<glyph unicode="&#xcd;" horiz-adv-x="481" d="M92 -18q4 170 6 342t3 330.5t2 297t1 240.5v164v65q43 -2 92.5 -3t92.5 -1q51 -2 100 -2q-4 -109 -6 -227.5t-4 -238.5t-3 -237.5t-3 -224.5q-4 -250 -6 -495q-41 -4 -89.5 -5t-89.5 -3q-49 -2 -96 -2zM106 1665q25 18 68 53q37 29 96.5 76t149.5 118q12 -20 35 -49 q18 -25 45.5 -63.5t66.5 -89.5q-41 -23 -94 -54q-47 -27 -110.5 -62.5t-141.5 -82.5q-12 20 -31 43q-16 20 -36.5 48t-47.5 63z" />
<glyph unicode="&#xce;" horiz-adv-x="481" d="M-117 1651q16 14 50 45q29 27 74.5 72t121.5 117q35 -2 74 -2q35 -2 76 -3q43 0 88 -4q20 -20 55 -51q29 -27 75 -66.5t116 -95.5q-16 -18 -39 -41q-18 -20 -47 -48.5t-64 -67.5q-29 27 -65 61q-31 29 -73 67t-89 83q-18 -18 -45 -50q-23 -27 -60 -67.5t-90 -102.5 q-18 14 -41 37q-20 18 -49 47t-68 70zM92 -18q4 170 6 342t3 330.5t2 297t1 240.5v164v65q43 -2 92.5 -3t92.5 -1q51 -2 100 -2q-4 -109 -6 -227.5t-4 -238.5t-3 -237.5t-3 -224.5q-4 -250 -6 -495q-41 -4 -89.5 -5t-89.5 -3q-49 -2 -96 -2z" />
<glyph unicode="&#xcf;" horiz-adv-x="481" d="M-117 1690q0 61 37 112.5t109 51.5t115 -46.5t43 -119.5q0 -66 -42 -112t-116 -46q-66 0 -106 45t-40 115zM92 -18q4 170 6 342t3 330.5t2 297t1 240.5v164v65q43 -2 92.5 -3t92.5 -1q51 -2 100 -2q-4 -109 -6 -227.5t-4 -238.5t-3 -237.5t-3 -224.5q-4 -250 -6 -495 q-41 -4 -89.5 -5t-89.5 -3q-49 -2 -96 -2zM299 1663q0 78 45.5 121t108.5 43q66 0 106.5 -49t40.5 -111q0 -74 -42 -117t-101 -43q-74 0 -116 45.5t-42 110.5z" />
<glyph unicode="&#xd0;" horiz-adv-x="1269" d="M25 821l88 2q-6 133 -9.5 239.5t-7.5 180.5q-4 86 -6 154q94 16 183 25.5t176 9.5q166 0 307 -37t244.5 -119t163 -212t59.5 -316q0 -209 -54.5 -355.5t-152.5 -236.5t-236.5 -131t-306.5 -41q-156 0 -334 30q-2 78 -4 177.5t-4 191.5q-4 106 -6 215q-23 0 -40 -1t-30 -1 h-24q-2 68 -2 111t-2 69q-2 29 -2 45zM385 1194q2 -70 2 -137v-117q0 -59 2 -100q66 0 112 -1t74 -1h58q-4 -66 -6 -111t-2 -74q-2 -33 0 -53q-35 0 -75 1t-75 1t-59 1l-23 1q2 -86 3 -155.5t3 -120.5q2 -60 4 -107q141 -16 243 13.5t168.5 95t97 166t30.5 225.5 q0 156 -45 253t-122 150.5t-177 67.5t-213 2z" />
<glyph unicode="&#xd1;" horiz-adv-x="1243" d="M74 -66q4 123 7 254t5 262.5t4 257.5t4 240q4 266 6 525q68 6 133.5 9t118.5 7q61 4 119 6q94 -274 172 -485t133 -357q66 -170 115 -295q8 184 13 363.5t9 325.5q4 168 7 321q43 2 88 4t79 4l82 4q-4 -113 -8 -230.5t-7 -233t-6 -225t-5 -206.5q-6 -229 -10 -442 q-53 -4 -111.5 -7t-110.5 -5q-59 -2 -116 -4q-100 229 -183.5 434t-142.5 360q-70 182 -129 338q-2 -96 -3 -198.5l-2 -205t-1 -202.5v-191v-415q-49 -4 -95 -6t-83 -4q-43 -3 -82 -3zM260 1683q23 117 78.5 186.5t145.5 69.5q41 0 74.5 -15t64.5 -33.5t58.5 -34t58.5 -15.5 q35 0 56.5 25.5t27.5 60.5q27 -10 55 -21q25 -10 55.5 -21.5t63.5 -25.5q-4 -47 -22.5 -91t-47.5 -79.5t-66.5 -57t-82.5 -21.5q-47 0 -82 15t-63.5 34.5t-55.5 35t-57 15.5q-35 0 -55.5 -24.5t-32.5 -65.5q-23 8 -50 18q-23 8 -54.5 19.5t-68.5 25.5z" />
<glyph unicode="&#xd2;" horiz-adv-x="1366" d="M47 674q0 166 42 312.5t126 256t210 173t294 63.5q135 0 245.5 -52.5t189.5 -150.5t122 -239.5t43 -319.5q0 -160 -42 -296t-125 -235.5t-204.5 -156t-279.5 -56.5q-154 0 -270.5 51.5t-194.5 143.5t-117 221t-39 285zM340 666q0 -98 18.5 -184.5t60.5 -149t107.5 -99 t159.5 -36.5q86 0 150.5 45t106.5 121.5t62.5 181t20.5 225.5q0 86 -17.5 169t-54 148.5t-95 105.5t-140.5 40q-90 0 -160 -46t-119 -124t-74.5 -180.5t-25.5 -216.5zM350 1768q39 51 68 90t47 65q23 31 37 54q88 -72 148.5 -119t97.5 -76q42 -35 67 -53q-53 -70 -86 -115 q-18 -25 -32 -45q-78 47 -142.5 83t-109.5 62q-53 31 -95 54z" />
<glyph unicode="&#xd3;" horiz-adv-x="1366" d="M47 674q0 166 42 312.5t126 256t210 173t294 63.5q135 0 245.5 -52.5t189.5 -150.5t122 -239.5t43 -319.5q0 -160 -42 -296t-125 -235.5t-204.5 -156t-279.5 -56.5q-154 0 -270.5 51.5t-194.5 143.5t-117 221t-39 285zM340 666q0 -98 18.5 -184.5t60.5 -149t107.5 -99 t159.5 -36.5q86 0 150.5 45t106.5 121.5t62.5 181t20.5 225.5q0 86 -17.5 169t-54 148.5t-95 105.5t-140.5 40q-90 0 -160 -46t-119 -124t-74.5 -180.5t-25.5 -216.5zM548 1723q25 18 68 53q37 29 96.5 76t149.5 118q12 -20 35 -49q18 -25 45.5 -63.5t66.5 -89.5 q-41 -23 -94 -54q-47 -27 -110.5 -62.5t-141.5 -82.5q-12 20 -31 43q-16 20 -36.5 48t-47.5 63z" />
<glyph unicode="&#xd4;" horiz-adv-x="1366" d="M47 674q0 166 42 312.5t126 256t210 173t294 63.5q135 0 245.5 -52.5t189.5 -150.5t122 -239.5t43 -319.5q0 -160 -42 -296t-125 -235.5t-204.5 -156t-279.5 -56.5q-154 0 -270.5 51.5t-194.5 143.5t-117 221t-39 285zM323 1702q16 14 50 45q29 27 74.5 72t121.5 117 q35 -2 74 -2q35 -2 76 -3q43 0 88 -4q20 -20 55 -51q29 -27 75 -66.5t116 -95.5q-16 -18 -39 -41q-18 -20 -47 -48.5t-64 -67.5q-29 27 -65 61q-31 29 -73 67t-89 83q-18 -18 -45 -50q-23 -27 -60 -67.5t-90 -102.5q-18 14 -41 37q-20 18 -49 47t-68 70zM340 666 q0 -98 18.5 -184.5t60.5 -149t107.5 -99t159.5 -36.5q86 0 150.5 45t106.5 121.5t62.5 181t20.5 225.5q0 86 -17.5 169t-54 148.5t-95 105.5t-140.5 40q-90 0 -160 -46t-119 -124t-74.5 -180.5t-25.5 -216.5z" />
<glyph unicode="&#xd5;" horiz-adv-x="1366" d="M47 674q0 166 42 312.5t126 256t210 173t294 63.5q135 0 245.5 -52.5t189.5 -150.5t122 -239.5t43 -319.5q0 -160 -42 -296t-125 -235.5t-204.5 -156t-279.5 -56.5q-154 0 -270.5 51.5t-194.5 143.5t-117 221t-39 285zM321 1657q23 117 78.5 186.5t145.5 69.5 q41 0 74.5 -15t64.5 -33.5t58.5 -34t58.5 -15.5q35 0 56.5 25.5t27.5 60.5q27 -10 55 -21q25 -10 55.5 -21.5t63.5 -25.5q-4 -47 -22.5 -91t-47.5 -79.5t-66.5 -57t-82.5 -21.5q-47 0 -82 15t-63.5 34.5t-55.5 35t-57 15.5q-35 0 -55.5 -24.5t-32.5 -65.5q-23 8 -50 18 q-23 8 -54.5 19.5t-68.5 25.5zM340 666q0 -98 18.5 -184.5t60.5 -149t107.5 -99t159.5 -36.5q86 0 150.5 45t106.5 121.5t62.5 181t20.5 225.5q0 86 -17.5 169t-54 148.5t-95 105.5t-140.5 40q-90 0 -160 -46t-119 -124t-74.5 -180.5t-25.5 -216.5z" />
<glyph unicode="&#xd6;" horiz-adv-x="1366" d="M47 674q0 166 42 312.5t126 256t210 173t294 63.5q135 0 245.5 -52.5t189.5 -150.5t122 -239.5t43 -319.5q0 -160 -42 -296t-125 -235.5t-204.5 -156t-279.5 -56.5q-154 0 -270.5 51.5t-194.5 143.5t-117 221t-39 285zM323 1753q0 61 37 112.5t109 51.5t115 -46.5 t43 -119.5q0 -66 -42 -112t-116 -46q-66 0 -106 45t-40 115zM340 666q0 -98 18.5 -184.5t60.5 -149t107.5 -99t159.5 -36.5q86 0 150.5 45t106.5 121.5t62.5 181t20.5 225.5q0 86 -17.5 169t-54 148.5t-95 105.5t-140.5 40q-90 0 -160 -46t-119 -124t-74.5 -180.5 t-25.5 -216.5zM739 1726q0 78 45.5 121t108.5 43q66 0 106.5 -49t40.5 -111q0 -74 -42 -117t-101 -43q-74 0 -116 45.5t-42 110.5z" />
<glyph unicode="&#xd8;" horiz-adv-x="1366" d="M47 723q0 150 43 287t127 240.5t205.5 165t279.5 61.5q154 0 269.5 -64.5t192.5 -169t116 -237t39 -267.5q0 -164 -41 -304t-124 -242.5t-206 -161t-286 -58.5q-119 0 -229.5 48.5t-196.5 142.5t-137.5 234.5t-51.5 324.5zM301 723q0 -74 15.5 -150.5t50.5 -150.5 q37 70 100 182q53 98 141 254t217 389q-61 25 -120 25q-86 0 -160 -45t-128.5 -120t-85 -174t-30.5 -210zM524 246q86 -35 156 -35q88 0 156.5 44t116.5 117.5t74 169t26 195.5q0 88 -20.5 174t-63.5 162q-33 -57 -92 -168q-51 -94 -137.5 -252.5t-215.5 -406.5z" />
<glyph unicode="&#xd9;" horiz-adv-x="1226" d="M63 672q0 160 26 360.5t81 448.5q49 -6 97 -12.5t85 -10.5q43 -6 82 -12q-47 -264 -73.5 -464t-26.5 -347q0 -209 67.5 -328t221.5 -119q70 0 122 36t86.5 100.5t51 156.5t16.5 203q0 133 -20.5 301t-61.5 381q59 10 105.5 16.5t78.5 10.5q37 6 68 8q49 -217 74.5 -399.5 t25.5 -335.5q0 -190 -44 -327.5t-118.5 -226.5t-177 -132t-219.5 -43t-217 37.5t-174 124.5t-115 227.5t-41 345.5zM280 1745q39 51 68 90t47 65q23 31 37 54q88 -72 148.5 -119t97.5 -76q42 -35 67 -53q-53 -70 -86 -115q-18 -25 -32 -45q-78 47 -142.5 83t-109.5 62 q-53 31 -95 54z" />
<glyph unicode="&#xda;" horiz-adv-x="1226" d="M63 672q0 160 26 360.5t81 448.5q49 -6 97 -12.5t85 -10.5q43 -6 82 -12q-47 -264 -73.5 -464t-26.5 -347q0 -209 67.5 -328t221.5 -119q70 0 122 36t86.5 100.5t51 156.5t16.5 203q0 133 -20.5 301t-61.5 381q59 10 105.5 16.5t78.5 10.5q37 6 68 8q49 -217 74.5 -399.5 t25.5 -335.5q0 -190 -44 -327.5t-118.5 -226.5t-177 -132t-219.5 -43t-217 37.5t-174 124.5t-115 227.5t-41 345.5zM479 1663q25 18 68 53q37 29 96.5 76t149.5 118q12 -20 35 -49q18 -25 45.5 -63.5t66.5 -89.5q-41 -23 -94 -54q-47 -27 -110.5 -62.5t-141.5 -82.5 q-12 20 -31 43q-16 20 -36.5 48t-47.5 63z" />
<glyph unicode="&#xdb;" horiz-adv-x="1226" d="M63 672q0 160 26 360.5t81 448.5q49 -6 97 -12.5t85 -10.5q43 -6 82 -12q-47 -264 -73.5 -464t-26.5 -347q0 -209 67.5 -328t221.5 -119q70 0 122 36t86.5 100.5t51 156.5t16.5 203q0 133 -20.5 301t-61.5 381q59 10 105.5 16.5t78.5 10.5q37 6 68 8q49 -217 74.5 -399.5 t25.5 -335.5q0 -190 -44 -327.5t-118.5 -226.5t-177 -132t-219.5 -43t-217 37.5t-174 124.5t-115 227.5t-41 345.5zM262 1724q16 14 50 45q29 27 74.5 72t121.5 117q35 -2 74 -2q35 -2 76 -3q43 0 88 -4q20 -20 55 -51q29 -27 75 -66.5t116 -95.5q-16 -18 -39 -41 q-18 -20 -47 -48.5t-64 -67.5q-29 27 -65 61q-31 29 -73 67t-89 83q-18 -18 -45 -50q-23 -27 -60 -67.5t-90 -102.5q-18 14 -41 37q-20 18 -49 47t-68 70z" />
<glyph unicode="&#xdc;" horiz-adv-x="1226" d="M63 672q0 160 26 360.5t81 448.5q49 -6 97 -12.5t85 -10.5q43 -6 82 -12q-47 -264 -73.5 -464t-26.5 -347q0 -209 67.5 -328t221.5 -119q70 0 122 36t86.5 100.5t51 156.5t16.5 203q0 133 -20.5 301t-61.5 381q59 10 105.5 16.5t78.5 10.5q37 6 68 8q49 -217 74.5 -399.5 t25.5 -335.5q0 -190 -44 -327.5t-118.5 -226.5t-177 -132t-219.5 -43t-217 37.5t-174 124.5t-115 227.5t-41 345.5zM258 1745q0 61 37 112.5t109 51.5t115 -46.5t43 -119.5q0 -66 -42 -112t-116 -46q-66 0 -106 45t-40 115zM674 1718q0 78 45.5 121t108.5 43q66 0 106.5 -49 t40.5 -111q0 -74 -42 -117t-101 -43q-74 0 -116 45.5t-42 110.5z" />
<glyph unicode="&#xdd;" horiz-adv-x="1222" d="M0 1389q35 16 80 36.5t86 36.5q47 20 92 39q23 -57 50.5 -124.5t56 -138.5t59.5 -141.5t59 -135.5q68 -154 135 -310q70 141 132.5 278.5t109.5 248.5q55 127 105 243q41 -18 86 -39.5t84 -40.5q45 -23 88 -41q-29 -61 -66 -133.5t-76 -149.5t-78.5 -154t-76.5 -148 q-88 -168 -178 -338q0 -57 2 -127t4 -131l4 -144q-49 -2 -102.5 -3t-96.5 -1h-98q2 55 2 127v138v151q-35 72 -74 153t-78 164.5t-76.5 166.5t-72.5 159q-82 179 -162 359zM509 1713q25 18 68 53q37 29 96.5 76t149.5 118q12 -20 35 -49q18 -25 45.5 -63.5t66.5 -89.5 q-41 -23 -94 -54q-47 -27 -110.5 -62.5t-141.5 -82.5q-12 20 -31 43q-16 20 -36.5 48t-47.5 63z" />
<glyph unicode="&#xde;" horiz-adv-x="1153" d="M74 -41q8 285 11 556t7 489q2 252 4 479q59 -2 108.5 -3t84.5 -1q41 -2 76 -2q-2 -31 -3 -64v-57v-60q178 12 319.5 -14.5t239 -92t148.5 -167.5t51 -240q0 -154 -53 -262t-151.5 -176t-236.5 -94.5t-308 -16.5q0 -47 1 -93t1 -85q0 -45 2 -86q-41 -2 -92.5 -3t-98.5 -3 q-53 -2 -110 -4zM352 852q0 -109 2 -199q0 -104 2 -200q55 -6 105 -7q84 0 154.5 19.5t120.5 61.5t79 105.5t29 151.5q0 143 -89 218t-261 75q-66 0 -142 -12v-213z" />
<glyph unicode="&#xdf;" horiz-adv-x="1251" d="M76 643q0 229 31.5 390t98 261.5t170 145.5t247.5 45q109 0 198.5 -29t155 -81t102.5 -126.5t37 -165.5q0 -61 -19.5 -115.5t-51 -97.5t-71.5 -73.5t-81 -44.5q147 -37 228 -136.5t81 -246.5q0 -90 -30.5 -161t-88 -120t-137.5 -75.5t-178 -26.5q-125 0 -279 47 q14 55 25.5 95t20.5 67q8 31 16 51q47 -12 87 -17.5t77 -5.5q104 0 163.5 46t59.5 132q0 61 -32 100.5t-85 62t-125.5 28.5t-154.5 2v100t2 70q0 33 2 53q57 2 110.5 14.5t93 39t63.5 69.5t24 104q0 100 -52.5 155.5t-142.5 55.5t-147.5 -46t-90 -125.5t-46 -185 t-13.5 -224.5q0 -147 13.5 -308t27.5 -313q-37 0 -80 -4q-37 -4 -86 -8t-106 -8q-37 352 -37 610z" />
<glyph unicode="&#xe0;" d="M45 248q0 102 61.5 171.5t154.5 112.5t207 61.5t218 18.5q-8 78 -47 132.5t-133 54.5q-76 0 -125 -45t-70 -115q-35 4 -75 10q-35 4 -82.5 11.5t-102.5 13.5q18 76 56 139.5t95.5 109.5t131.5 71.5t166 25.5q100 0 183 -29.5t143.5 -88t94 -148.5t35.5 -209q2 -86 2 -180 q0 -92 3 -170q0 -90 2 -177q-35 -2 -72 -2q-33 -2 -74 -2h-82q0 14 -2 31q-2 14 -4 32.5t-4 37.5q-35 -49 -77 -81t-86 -51.5t-88 -27.5t-81 -8q-55 0 -116.5 15t-112.5 50t-85 93.5t-34 142.5zM180 1293q39 51 68 90t47 65q23 31 37 54q88 -72 148.5 -119t97.5 -76 q42 -35 67 -53q-53 -70 -86 -115q-18 -25 -32 -45q-78 47 -142.5 83t-109.5 62q-53 31 -95 54zM324 264q0 -29 11 -49t29.5 -32.5t40 -18.5t41.5 -6q43 0 90.5 19.5t86.5 56t64.5 89.5t25.5 121q-16 2 -31 2h-29q-68 0 -128 -14t-105 -38.5t-70.5 -58.5t-25.5 -71z" />
<glyph unicode="&#xe1;" d="M45 248q0 102 61.5 171.5t154.5 112.5t207 61.5t218 18.5q-8 78 -47 132.5t-133 54.5q-76 0 -125 -45t-70 -115q-35 4 -75 10q-35 4 -82.5 11.5t-102.5 13.5q18 76 56 139.5t95.5 109.5t131.5 71.5t166 25.5q100 0 183 -29.5t143.5 -88t94 -148.5t35.5 -209q2 -86 2 -180 q0 -92 3 -170q0 -90 2 -177q-35 -2 -72 -2q-33 -2 -74 -2h-82q0 14 -2 31q-2 14 -4 32.5t-4 37.5q-35 -49 -77 -81t-86 -51.5t-88 -27.5t-81 -8q-55 0 -116.5 15t-112.5 50t-85 93.5t-34 142.5zM324 264q0 -29 11 -49t29.5 -32.5t40 -18.5t41.5 -6q43 0 90.5 19.5t86.5 56 t64.5 89.5t25.5 121q-16 2 -31 2h-29q-68 0 -128 -14t-105 -38.5t-70.5 -58.5t-25.5 -71zM378 1248q25 18 68 53q37 29 96.5 76t149.5 118q12 -20 35 -49q18 -25 45.5 -63.5t66.5 -89.5q-41 -23 -94 -54q-47 -27 -110.5 -62.5t-141.5 -82.5q-12 20 -31 43q-16 20 -36.5 48 t-47.5 63z" />
<glyph unicode="&#xe2;" d="M45 248q0 102 61.5 171.5t154.5 112.5t207 61.5t218 18.5q-8 78 -47 132.5t-133 54.5q-76 0 -125 -45t-70 -115q-35 4 -75 10q-35 4 -82.5 11.5t-102.5 13.5q18 76 56 139.5t95.5 109.5t131.5 71.5t166 25.5q100 0 183 -29.5t143.5 -88t94 -148.5t35.5 -209q2 -86 2 -180 q0 -92 3 -170q0 -90 2 -177q-35 -2 -72 -2q-33 -2 -74 -2h-82q0 14 -2 31q-2 14 -4 32.5t-4 37.5q-35 -49 -77 -81t-86 -51.5t-88 -27.5t-81 -8q-55 0 -116.5 15t-112.5 50t-85 93.5t-34 142.5zM153 1243q16 14 50 45q29 27 74.5 72t121.5 117q35 -2 74 -2q35 -2 76 -3 q43 0 88 -4q20 -20 55 -51q29 -27 75 -66.5t116 -95.5q-16 -18 -39 -41q-18 -20 -47 -48.5t-64 -67.5q-29 27 -65 61q-31 29 -73 67t-89 83q-18 -18 -45 -50q-23 -27 -60 -67.5t-90 -102.5q-18 14 -41 37q-20 18 -49 47t-68 70zM324 264q0 -29 11 -49t29.5 -32.5t40 -18.5 t41.5 -6q43 0 90.5 19.5t86.5 56t64.5 89.5t25.5 121q-16 2 -31 2h-29q-68 0 -128 -14t-105 -38.5t-70.5 -58.5t-25.5 -71z" />
<glyph unicode="&#xe3;" d="M45 248q0 102 61.5 171.5t154.5 112.5t207 61.5t218 18.5q-8 78 -47 132.5t-133 54.5q-76 0 -125 -45t-70 -115q-35 4 -75 10q-35 4 -82.5 11.5t-102.5 13.5q18 76 56 139.5t95.5 109.5t131.5 71.5t166 25.5q100 0 183 -29.5t143.5 -88t94 -148.5t35.5 -209q2 -86 2 -180 q0 -92 3 -170q0 -90 2 -177q-35 -2 -72 -2q-33 -2 -74 -2h-82q0 14 -2 31q-2 14 -4 32.5t-4 37.5q-35 -49 -77 -81t-86 -51.5t-88 -27.5t-81 -8q-55 0 -116.5 15t-112.5 50t-85 93.5t-34 142.5zM151 1192q23 117 78.5 186.5t145.5 69.5q41 0 74.5 -15t64.5 -33.5t58.5 -34 t58.5 -15.5q35 0 56.5 25.5t27.5 60.5q27 -10 55 -21q25 -10 55.5 -21.5t63.5 -25.5q-4 -47 -22.5 -91t-47.5 -79.5t-66.5 -57t-82.5 -21.5q-47 0 -82 15t-63.5 34.5t-55.5 35t-57 15.5q-35 0 -55.5 -24.5t-32.5 -65.5q-23 8 -50 18q-23 8 -54.5 19.5t-68.5 25.5zM324 264 q0 -29 11 -49t29.5 -32.5t40 -18.5t41.5 -6q43 0 90.5 19.5t86.5 56t64.5 89.5t25.5 121q-16 2 -31 2h-29q-68 0 -128 -14t-105 -38.5t-70.5 -58.5t-25.5 -71z" />
<glyph unicode="&#xe4;" d="M45 248q0 102 61.5 171.5t154.5 112.5t207 61.5t218 18.5q-8 78 -47 132.5t-133 54.5q-76 0 -125 -45t-70 -115q-35 4 -75 10q-35 4 -82.5 11.5t-102.5 13.5q18 76 56 139.5t95.5 109.5t131.5 71.5t166 25.5q100 0 183 -29.5t143.5 -88t94 -148.5t35.5 -209q2 -86 2 -180 q0 -92 3 -170q0 -90 2 -177q-35 -2 -72 -2q-33 -2 -74 -2h-82q0 14 -2 31q-2 14 -4 32.5t-4 37.5q-35 -49 -77 -81t-86 -51.5t-88 -27.5t-81 -8q-55 0 -116.5 15t-112.5 50t-85 93.5t-34 142.5zM153 1284q0 61 37 112.5t109 51.5t115 -46.5t43 -119.5q0 -66 -42 -112 t-116 -46q-66 0 -106 45t-40 115zM324 264q0 -29 11 -49t29.5 -32.5t40 -18.5t41.5 -6q43 0 90.5 19.5t86.5 56t64.5 89.5t25.5 121q-16 2 -31 2h-29q-68 0 -128 -14t-105 -38.5t-70.5 -58.5t-25.5 -71zM569 1257q0 78 45.5 121t108.5 43q66 0 106.5 -49t40.5 -111 q0 -74 -42 -117t-101 -43q-74 0 -116 45.5t-42 110.5z" />
<glyph unicode="&#xe5;" d="M45 248q0 102 61.5 171.5t154.5 112.5t207 61.5t218 18.5q-8 78 -47 132.5t-133 54.5q-76 0 -125 -45t-70 -115q-35 4 -75 10q-35 4 -82.5 11.5t-102.5 13.5q18 76 56 139.5t95.5 109.5t131.5 71.5t166 25.5q100 0 183 -29.5t143.5 -88t94 -148.5t35.5 -209q2 -86 2 -180 q0 -92 3 -170q0 -90 2 -177q-35 -2 -72 -2q-33 -2 -74 -2h-82q0 14 -2 31q-2 14 -4 32.5t-4 37.5q-35 -49 -77 -81t-86 -51.5t-88 -27.5t-81 -8q-55 0 -116.5 15t-112.5 50t-85 93.5t-34 142.5zM275 1332q0 106 67.5 166.5t163.5 60.5q68 0 116 -21.5t77.5 -55.5t43 -75 t13.5 -77q0 -55 -19.5 -98.5t-53.5 -73t-78 -46t-95 -16.5q-57 0 -101 18.5t-74 51.5t-45 76t-15 90zM324 264q0 -29 11 -49t29.5 -32.5t40 -18.5t41.5 -6q43 0 90.5 19.5t86.5 56t64.5 89.5t25.5 121q-16 2 -31 2h-29q-68 0 -128 -14t-105 -38.5t-70.5 -58.5t-25.5 -71z M416 1330q0 -41 24.5 -73t75.5 -32q43 0 69.5 31t26.5 76q0 41 -26.5 67.5t-69.5 28.5q-41 0 -70.5 -23.5t-29.5 -74.5z" />
<glyph unicode="&#xe6;" horiz-adv-x="1742" d="M45 242q0 111 58.5 182.5t152.5 114.5t209 59t229 16q-4 39 -15 73t-33.5 60.5t-56.5 42t-81 15.5q-74 0 -129 -46t-72 -124q-37 4 -80 12q-37 6 -84 12.5t-98 16.5q35 158 153.5 254t303.5 96q111 0 198.5 -37t147.5 -115q63 74 152.5 115t199.5 41q111 0 203 -43 t158.5 -114.5t104.5 -166t38 -196.5q0 -37 -6 -76q-156 -4 -285 -8t-225 -8q-113 -6 -201 -10q2 -47 21.5 -86t51.5 -68t74 -45t89 -16q156 0 223 147q35 -4 76 -8q35 -4 84 -8.5t108 -10.5q-23 -74 -65.5 -137t-104 -109.5t-139.5 -72t-166 -25.5q-129 0 -234.5 45 t-173.5 127q-86 -111 -201.5 -156.5t-234.5 -45.5q-55 0 -117.5 16t-113.5 52t-85 93.5t-34 141.5zM324 262q0 -29 11 -49t29.5 -32.5t41 -18.5t43.5 -6q43 0 90 19.5t87 56t65.5 89.5t25.5 123q-72 6 -142.5 -4t-126 -34.5t-90 -61.5t-34.5 -82zM954 600h168h154t151 4 q-8 96 -69.5 160.5t-153.5 64.5q-53 0 -96 -20.5t-75 -52t-52.5 -72.5t-26.5 -84z" />
<glyph unicode="&#xe7;" horiz-adv-x="1071" d="M47 467q0 131 41 234.5t108.5 174t157 108.5t185.5 38q174 0 302 -98.5t171 -288.5h-70q-35 0 -88 -1t-123 -3q-14 72 -60 124t-122 52q-51 0 -91 -26.5t-69 -71.5t-44 -104.5t-15 -125.5q0 -70 19.5 -124t52 -92t75.5 -57.5t92 -19.5q61 0 116.5 41t78.5 129 q37 -2 82 -4q39 -2 92 -5t115 -5q-31 -172 -151 -271.5t-292 -109.5q-2 -18 -2 -29v-20v-14q43 0 82 -9.5t68.5 -29t48 -50t18.5 -71.5q0 -84 -64.5 -131t-168.5 -47q-106 0 -230 51q8 37 13.5 65.5t9.5 49.5q4 23 8 38q53 -23 105.5 -35t91.5 -12q59 0 61 27 q0 14 -18.5 22.5t-48.5 8.5q-25 0 -52 -6q-12 4 -26 10q-14 4 -32.5 11t-43.5 17l6 43q4 23 8.5 51.5t10.5 67.5q-96 16 -172 60.5t-128.5 110t-80 148.5t-27.5 179z" />
<glyph unicode="&#xe8;" horiz-adv-x="1103" d="M47 477q0 125 38 228.5t105.5 178t161.5 115.5t205 41q113 0 206 -38.5t160.5 -108.5t104.5 -166t37 -209q0 -43 -6 -86q-164 -4 -297 -9t-230 -9q-113 -6 -198 -11q2 -49 22.5 -90t54 -71.5t77.5 -47t94 -16.5q90 0 147 45t88 117q29 -4 68 -8q35 -4 82 -9.5t108 -11.5 q-23 -78 -67.5 -142.5t-108 -110.5t-143.5 -70.5t-168 -24.5q-123 0 -222.5 36t-170 101.5t-109.5 160.5t-39 216zM219 1309q39 51 68 90t47 65q23 31 37 54q88 -72 148.5 -119t97.5 -76q42 -35 67 -53q-53 -70 -86 -115q-18 -25 -32 -45q-78 47 -142.5 83t-109.5 62 q-53 31 -95 54zM311 604h170h156q86 0 160 4q-10 98 -76 160.5t-158 62.5q-55 0 -98 -20t-75 -52t-51.5 -73t-27.5 -82z" />
<glyph unicode="&#xe9;" horiz-adv-x="1103" d="M47 477q0 125 38 228.5t105.5 178t161.5 115.5t205 41q113 0 206 -38.5t160.5 -108.5t104.5 -166t37 -209q0 -43 -6 -86q-164 -4 -297 -9t-230 -9q-113 -6 -198 -11q2 -49 22.5 -90t54 -71.5t77.5 -47t94 -16.5q90 0 147 45t88 117q29 -4 68 -8q35 -4 82 -9.5t108 -11.5 q-23 -78 -67.5 -142.5t-108 -110.5t-143.5 -70.5t-168 -24.5q-123 0 -222.5 36t-170 101.5t-109.5 160.5t-39 216zM311 604h170h156q86 0 160 4q-10 98 -76 160.5t-158 62.5q-55 0 -98 -20t-75 -52t-51.5 -73t-27.5 -82zM417 1264q25 18 68 53q37 29 96.5 76t149.5 118 q12 -20 35 -49q18 -25 45.5 -63.5t66.5 -89.5q-41 -23 -94 -54q-47 -27 -110.5 -62.5t-141.5 -82.5q-12 20 -31 43q-16 20 -36.5 48t-47.5 63z" />
<glyph unicode="&#xea;" horiz-adv-x="1103" d="M47 477q0 125 38 228.5t105.5 178t161.5 115.5t205 41q113 0 206 -38.5t160.5 -108.5t104.5 -166t37 -209q0 -43 -6 -86q-164 -4 -297 -9t-230 -9q-113 -6 -198 -11q2 -49 22.5 -90t54 -71.5t77.5 -47t94 -16.5q90 0 147 45t88 117q29 -4 68 -8q35 -4 82 -9.5t108 -11.5 q-23 -78 -67.5 -142.5t-108 -110.5t-143.5 -70.5t-168 -24.5q-123 0 -222.5 36t-170 101.5t-109.5 160.5t-39 216zM192 1255q16 14 50 45q29 27 74.5 72t121.5 117q35 -2 74 -2q35 -2 76 -3q43 0 88 -4q20 -20 55 -51q29 -27 75 -66.5t116 -95.5q-16 -18 -39 -41 q-18 -20 -47 -48.5t-64 -67.5q-29 27 -65 61q-31 29 -73 67t-89 83q-18 -18 -45 -50q-23 -27 -60 -67.5t-90 -102.5q-18 14 -41 37q-20 18 -49 47t-68 70zM311 604h170h156q86 0 160 4q-10 98 -76 160.5t-158 62.5q-55 0 -98 -20t-75 -52t-51.5 -73t-27.5 -82z" />
<glyph unicode="&#xeb;" horiz-adv-x="1103" d="M47 477q0 125 38 228.5t105.5 178t161.5 115.5t205 41q113 0 206 -38.5t160.5 -108.5t104.5 -166t37 -209q0 -43 -6 -86q-164 -4 -297 -9t-230 -9q-113 -6 -198 -11q2 -49 22.5 -90t54 -71.5t77.5 -47t94 -16.5q90 0 147 45t88 117q29 -4 68 -8q35 -4 82 -9.5t108 -11.5 q-23 -78 -67.5 -142.5t-108 -110.5t-143.5 -70.5t-168 -24.5q-123 0 -222.5 36t-170 101.5t-109.5 160.5t-39 216zM196 1295q0 61 37 112.5t109 51.5t115 -46.5t43 -119.5q0 -66 -42 -112t-116 -46q-66 0 -106 45t-40 115zM311 604h170h156q86 0 160 4q-10 98 -76 160.5 t-158 62.5q-55 0 -98 -20t-75 -52t-51.5 -73t-27.5 -82zM612 1268q0 78 45.5 121t108.5 43q66 0 106.5 -49t40.5 -111q0 -74 -42 -117t-101 -43q-74 0 -116 45.5t-42 110.5z" />
<glyph unicode="&#xec;" horiz-adv-x="485" d="M-91 1278q39 51 68 90t47 65q23 31 37 54q88 -72 148.5 -119t97.5 -76q42 -35 67 -53q-53 -70 -86 -115q-18 -25 -32 -45q-78 47 -142.5 83t-109.5 62q-53 31 -95 54zM102 -12l4 360q0 76 1.5 161t2.5 171t1 168v160q37 -2 82 -2q37 -2 86 -2h104q-2 -121 -4 -277 q-2 -133 -4 -318.5t-2 -416.5q-49 0 -97 -2q-41 -2 -87 -3t-87 1z" />
<glyph unicode="&#xed;" horiz-adv-x="485" d="M102 -12l4 360q0 76 1.5 161t2.5 171t1 168v160q37 -2 82 -2q37 -2 86 -2h104q-2 -121 -4 -277q-2 -133 -4 -318.5t-2 -416.5q-49 0 -97 -2q-41 -2 -87 -3t-87 1zM106 1233q25 18 68 53q37 29 96.5 76t149.5 118q12 -20 35 -49q18 -25 45.5 -63.5t66.5 -89.5 q-41 -23 -94 -54q-47 -27 -110.5 -62.5t-141.5 -82.5q-12 20 -31 43q-16 20 -36.5 48t-47.5 63z" />
<glyph unicode="&#xee;" horiz-adv-x="485" d="M-117 1237q16 14 50 45q29 27 74.5 72t121.5 117q35 -2 74 -2q35 -2 76 -3q43 0 88 -4q20 -20 55 -51q29 -27 75 -66.5t116 -95.5q-16 -18 -39 -41q-18 -20 -47 -48.5t-64 -67.5q-29 27 -65 61q-31 29 -73 67t-89 83q-18 -18 -45 -50q-23 -27 -60 -67.5t-90 -102.5 q-18 14 -41 37q-20 18 -49 47t-68 70zM102 -12l4 360q0 76 1.5 161t2.5 171t1 168v160q37 -2 82 -2q37 -2 86 -2h104q-2 -121 -4 -277q-2 -133 -4 -318.5t-2 -416.5q-49 0 -97 -2q-41 -2 -87 -3t-87 1z" />
<glyph unicode="&#xef;" horiz-adv-x="485" d="M-109 1276q0 61 37 112.5t109 51.5t115 -46.5t43 -119.5q0 -66 -42 -112t-116 -46q-66 0 -106 45t-40 115zM102 -12l4 360q0 76 1.5 161t2.5 171t1 168v160q37 -2 82 -2q37 -2 86 -2h104q-2 -121 -4 -277q-2 -133 -4 -318.5t-2 -416.5q-49 0 -97 -2q-41 -2 -87 -3t-87 1z M307 1249q0 78 45.5 121t108.5 43q66 0 106.5 -49t40.5 -111q0 -74 -42 -117t-101 -43q-74 0 -116 45.5t-42 110.5z" />
<glyph unicode="&#xf0;" horiz-adv-x="1120" d="M49 504q0 111 28.5 209t83 171.5t135.5 118t185 44.5q100 0 181 -35t124 -80q-25 59 -46 105t-43.5 89t-49 85t-63.5 96q29 18 65 39q31 16 70 37t84 44q29 -41 57.5 -87t50.5 -87q25 10 50 21q43 18 96 45q10 -25 24 -59q12 -29 28.5 -73t39.5 -97q-23 -8 -47 -17 q-23 -8 -50.5 -19.5t-62.5 -25.5q41 -109 61.5 -223.5t20.5 -220.5q0 -135 -35 -246t-101.5 -188.5t-163.5 -119.5t-220 -42q-90 0 -180 30.5t-162 94t-116 161t-44 230.5zM322 526q0 -70 19 -129t52 -103t77 -68.5t93 -24.5q57 0 99.5 25.5t70 67.5t40.5 96.5t13 111.5 q0 70 -15 130t-46 104t-77 69.5t-107 25.5q-53 0 -94 -24.5t-69 -66.5t-42 -97t-14 -117z" />
<glyph unicode="&#xf1;" horiz-adv-x="1069" d="M68 999q41 -2 82 -2h75q37 0 74 -2q-2 -29 -3 -55.5t-1 -46.5q-2 -25 -2 -45q57 68 146 114t186 46q82 0 152.5 -25t122.5 -78t82 -137t30 -205q0 -86 -1 -179t-3 -171q-2 -92 -4 -178h-95q-45 0 -84 2q-45 0 -88 2q2 94 4 163.5t2 129.5v114t-2 121q-6 211 -149 209 q-117 -4 -177.5 -99t-64.5 -237q-4 -117 -1 -241.5t7 -253.5q-80 4 -143 4h-123q-2 88 -4 180t-3 182t-3 176t-4 164q-4 178 -8 348zM174 1179q23 117 78.5 186.5t145.5 69.5q41 0 74.5 -15t64.5 -33.5t58.5 -34t58.5 -15.5q35 0 56.5 25.5t27.5 60.5q27 -10 55 -21 q25 -10 55.5 -21.5t63.5 -25.5q-4 -47 -22.5 -91t-47.5 -79.5t-66.5 -57t-82.5 -21.5q-47 0 -82 15t-63.5 34.5t-55.5 35t-57 15.5q-35 0 -55.5 -24.5t-32.5 -65.5q-23 8 -50 18q-23 8 -54.5 19.5t-68.5 25.5z" />
<glyph unicode="&#xf2;" horiz-adv-x="1165" d="M47 475q0 129 40 232.5t110.5 177t165.5 113.5t206 40q121 0 221.5 -38.5t173 -108.5t112.5 -165t40 -206q0 -127 -37 -231.5t-105.5 -178t-166.5 -113.5t-221 -40q-133 0 -234.5 42t-169 112.5t-101.5 165t-34 198.5zM249 1309q39 51 68 90t47 65q23 31 37 54 q88 -72 148.5 -119t97.5 -76q42 -35 67 -53q-53 -70 -86 -115q-18 -25 -32 -45q-78 47 -142.5 83t-109.5 62q-53 31 -95 54zM326 492q0 -63 16 -121t48 -101t79 -68.5t109 -25.5q61 0 109 26.5t82 70.5t51.5 101.5t17.5 117.5q0 68 -18.5 128t-52.5 105t-81 71.5t-106 26.5 q-61 -2 -108.5 -30.5t-79.5 -74.5t-49 -104.5t-17 -121.5z" />
<glyph unicode="&#xf3;" horiz-adv-x="1165" d="M47 475q0 129 40 232.5t110.5 177t165.5 113.5t206 40q121 0 221.5 -38.5t173 -108.5t112.5 -165t40 -206q0 -127 -37 -231.5t-105.5 -178t-166.5 -113.5t-221 -40q-133 0 -234.5 42t-169 112.5t-101.5 165t-34 198.5zM326 492q0 -63 16 -121t48 -101t79 -68.5t109 -25.5 q61 0 109 26.5t82 70.5t51.5 101.5t17.5 117.5q0 68 -18.5 128t-52.5 105t-81 71.5t-106 26.5q-61 -2 -108.5 -30.5t-79.5 -74.5t-49 -104.5t-17 -121.5zM448 1264q25 18 68 53q37 29 96.5 76t149.5 118q12 -20 35 -49q18 -25 45.5 -63.5t66.5 -89.5q-41 -23 -94 -54 q-47 -27 -110.5 -62.5t-141.5 -82.5q-12 20 -31 43q-16 20 -36.5 48t-47.5 63z" />
<glyph unicode="&#xf4;" horiz-adv-x="1165" d="M47 475q0 129 40 232.5t110.5 177t165.5 113.5t206 40q121 0 221.5 -38.5t173 -108.5t112.5 -165t40 -206q0 -127 -37 -231.5t-105.5 -178t-166.5 -113.5t-221 -40q-133 0 -234.5 42t-169 112.5t-101.5 165t-34 198.5zM223 1264q16 14 50 45q29 27 74.5 72t121.5 117 q35 -2 74 -2q35 -2 76 -3q43 0 88 -4q20 -20 55 -51q29 -27 75 -66.5t116 -95.5q-16 -18 -39 -41q-18 -20 -47 -48.5t-64 -67.5q-29 27 -65 61q-31 29 -73 67t-89 83q-18 -18 -45 -50q-23 -27 -60 -67.5t-90 -102.5q-18 14 -41 37q-20 18 -49 47t-68 70zM326 492 q0 -63 16 -121t48 -101t79 -68.5t109 -25.5q61 0 109 26.5t82 70.5t51.5 101.5t17.5 117.5q0 68 -18.5 128t-52.5 105t-81 71.5t-106 26.5q-61 -2 -108.5 -30.5t-79.5 -74.5t-49 -104.5t-17 -121.5z" />
<glyph unicode="&#xf5;" horiz-adv-x="1165" d="M47 475q0 129 40 232.5t110.5 177t165.5 113.5t206 40q121 0 221.5 -38.5t173 -108.5t112.5 -165t40 -206q0 -127 -37 -231.5t-105.5 -178t-166.5 -113.5t-221 -40q-133 0 -234.5 42t-169 112.5t-101.5 165t-34 198.5zM221 1210q23 117 78.5 186.5t145.5 69.5 q41 0 74.5 -15t64.5 -33.5t58.5 -34t58.5 -15.5q35 0 56.5 25.5t27.5 60.5q27 -10 55 -21q25 -10 55.5 -21.5t63.5 -25.5q-4 -47 -22.5 -91t-47.5 -79.5t-66.5 -57t-82.5 -21.5q-47 0 -82 15t-63.5 34.5t-55.5 35t-57 15.5q-35 0 -55.5 -24.5t-32.5 -65.5q-23 8 -50 18 q-23 8 -54.5 19.5t-68.5 25.5zM326 492q0 -63 16 -121t48 -101t79 -68.5t109 -25.5q61 0 109 26.5t82 70.5t51.5 101.5t17.5 117.5q0 68 -18.5 128t-52.5 105t-81 71.5t-106 26.5q-61 -2 -108.5 -30.5t-79.5 -74.5t-49 -104.5t-17 -121.5z" />
<glyph unicode="&#xf6;" horiz-adv-x="1165" d="M47 475q0 129 40 232.5t110.5 177t165.5 113.5t206 40q121 0 221.5 -38.5t173 -108.5t112.5 -165t40 -206q0 -127 -37 -231.5t-105.5 -178t-166.5 -113.5t-221 -40q-133 0 -234.5 42t-169 112.5t-101.5 165t-34 198.5zM223 1291q0 61 37 112.5t109 51.5t115 -46.5 t43 -119.5q0 -66 -42 -112t-116 -46q-66 0 -106 45t-40 115zM326 492q0 -63 16 -121t48 -101t79 -68.5t109 -25.5q61 0 109 26.5t82 70.5t51.5 101.5t17.5 117.5q0 68 -18.5 128t-52.5 105t-81 71.5t-106 26.5q-61 -2 -108.5 -30.5t-79.5 -74.5t-49 -104.5t-17 -121.5z M639 1264q0 78 45.5 121t108.5 43q66 0 106.5 -49t40.5 -111q0 -74 -42 -117t-101 -43q-74 0 -116 45.5t-42 110.5z" />
<glyph unicode="&#xf7;" horiz-adv-x="591" d="M86 506q2 51 4 119q2 57 3 135t1 176h115q113 0 295 6v-139v-135q0 -72 2 -140q-63 -4 -131 -8q-59 -4 -135 -8t-154 -6z" />
<glyph unicode="&#xf8;" horiz-adv-x="1165" d="M47 526q0 104 34 200.5t101.5 170.5t168 118t233.5 44q123 0 221 -41t167.5 -114t106.5 -174t37 -224q0 -115 -40 -211t-112.5 -167t-174 -111t-224.5 -40q-109 0 -204 38t-164.5 109t-109.5 172t-40 230zM266 518q0 -94 43 -192q92 117 168 213t129 166q64 82 113 145 q-68 25 -129 24q-72 0 -131.5 -28.5t-102.5 -76.5t-66.5 -112.5t-23.5 -138.5zM479 215q49 -14 103 -14q68 0 126 26.5t101 71.5t66.5 106.5t23.5 133.5q0 88 -43 184q-100 -131 -171 -226.5t-118 -158.5q-53 -74 -88 -123z" />
<glyph unicode="&#xf9;" horiz-adv-x="1021" d="M57 547q0 111 10.5 231.5t26.5 249.5q49 -4 98.5 -6t88.5 -6q45 -4 88 -6q-16 -111 -29.5 -231t-13.5 -230q0 -72 8 -134.5t27.5 -108.5t53.5 -72.5t85 -26.5q80 2 133 74.5t59 224.5q2 57 3 132t-1 144q-2 80 -4 164q29 -2 68 0q35 0 84 2t114 6q4 -193 6.5 -363.5 t6.5 -299.5q4 -152 6 -281q-33 -4 -72 -5t-74 -3q-41 -2 -81 -4q-2 25 -3 47q0 23 -2 41q-2 23 -2 41q-43 -63 -120.5 -102t-161.5 -39q-119 0 -197 44t-123 119.5t-63.5 178t-18.5 219.5zM178 1299q39 51 68 90t47 65q23 31 37 54q88 -72 148.5 -119t97.5 -76 q42 -35 67 -53q-53 -70 -86 -115q-18 -25 -32 -45q-78 47 -142.5 83t-109.5 62q-53 31 -95 54z" />
<glyph unicode="&#xfa;" horiz-adv-x="1021" d="M57 547q0 111 10.5 231.5t26.5 249.5q49 -4 98.5 -6t88.5 -6q45 -4 88 -6q-16 -111 -29.5 -231t-13.5 -230q0 -72 8 -134.5t27.5 -108.5t53.5 -72.5t85 -26.5q80 2 133 74.5t59 224.5q2 57 3 132t-1 144q-2 80 -4 164q29 -2 68 0q35 0 84 2t114 6q4 -193 6.5 -363.5 t6.5 -299.5q4 -152 6 -281q-33 -4 -72 -5t-74 -3q-41 -2 -81 -4q-2 25 -3 47q0 23 -2 41q-2 23 -2 41q-43 -63 -120.5 -102t-161.5 -39q-119 0 -197 44t-123 119.5t-63.5 178t-18.5 219.5zM391 1256q25 18 68 53q37 29 96.5 76t149.5 118q12 -20 35 -49q18 -25 45.5 -63.5 t66.5 -89.5q-41 -23 -94 -54q-47 -27 -110.5 -62.5t-141.5 -82.5q-12 20 -31 43q-16 20 -36.5 48t-47.5 63z" />
<glyph unicode="&#xfb;" horiz-adv-x="1021" d="M57 547q0 111 10.5 231.5t26.5 249.5q49 -4 98.5 -6t88.5 -6q45 -4 88 -6q-16 -111 -29.5 -231t-13.5 -230q0 -72 8 -134.5t27.5 -108.5t53.5 -72.5t85 -26.5q80 2 133 74.5t59 224.5q2 57 3 132t-1 144q-2 80 -4 164q29 -2 68 0q35 0 84 2t114 6q4 -193 6.5 -363.5 t6.5 -299.5q4 -152 6 -281q-33 -4 -72 -5t-74 -3q-41 -2 -81 -4q-2 25 -3 47q0 23 -2 41q-2 23 -2 41q-43 -63 -120.5 -102t-161.5 -39q-119 0 -197 44t-123 119.5t-63.5 178t-18.5 219.5zM151 1266q16 14 50 45q29 27 74.5 72t121.5 117q35 -2 74 -2q35 -2 76 -3 q43 0 88 -4q20 -20 55 -51q29 -27 75 -66.5t116 -95.5q-16 -18 -39 -41q-18 -20 -47 -48.5t-64 -67.5q-29 27 -65 61q-31 29 -73 67t-89 83q-18 -18 -45 -50q-23 -27 -60 -67.5t-90 -102.5q-18 14 -41 37q-20 18 -49 47t-68 70z" />
<glyph unicode="&#xfc;" horiz-adv-x="1021" d="M57 547q0 111 10.5 231.5t26.5 249.5q49 -4 98.5 -6t88.5 -6q45 -4 88 -6q-16 -111 -29.5 -231t-13.5 -230q0 -72 8 -134.5t27.5 -108.5t53.5 -72.5t85 -26.5q80 2 133 74.5t59 224.5q2 57 3 132t-1 144q-2 80 -4 164q29 -2 68 0q35 0 84 2t114 6q4 -193 6.5 -363.5 t6.5 -299.5q4 -152 6 -281q-33 -4 -72 -5t-74 -3q-41 -2 -81 -4q-2 25 -3 47q0 23 -2 41q-2 23 -2 41q-43 -63 -120.5 -102t-161.5 -39q-119 0 -197 44t-123 119.5t-63.5 178t-18.5 219.5zM151 1297q0 61 37 112.5t109 51.5t115 -46.5t43 -119.5q0 -66 -42 -112t-116 -46 q-66 0 -106 45t-40 115zM567 1270q0 78 45.5 121t108.5 43q66 0 106.5 -49t40.5 -111q0 -74 -42 -117t-101 -43q-74 0 -116 45.5t-42 110.5z" />
<glyph unicode="&#xfd;" horiz-adv-x="1005" d="M-2 989q35 12 78 25q37 10 86 25.5t108 31.5q33 -131 70 -274q33 -125 75 -283t89 -324l71 256q33 117 74 262.5t82 299.5q35 -10 76 -21q35 -10 84 -22.5t106 -26.5q-90 -272 -158.5 -479t-125 -360.5t-106.5 -257t-105.5 -166t-121 -89t-153.5 -26.5q-66 0 -118 15 t-86 34q4 35 12 74q6 35 12 77.5t14 89.5q41 -14 79 -22t73 -8q51 0 89 20.5t54 67.5q-53 156 -110 332q-51 152 -114.5 345t-133.5 404zM380 1278q25 18 68 53q37 29 96.5 76t149.5 118q12 -20 35 -49q18 -25 45.5 -63.5t66.5 -89.5q-41 -23 -94 -54q-47 -27 -110.5 -62.5 t-141.5 -82.5q-12 20 -31 43q-16 20 -36.5 48t-47.5 63z" />
<glyph unicode="&#xfe;" horiz-adv-x="1114" d="M68 -418q2 356 4 701q0 147 1 306t2 315.5t2 304t1 272.5q37 0 80 -2q37 -2 85 -3t105 -1q-4 -74 -6 -164q-4 -78 -5 -185.5t-3 -236.5q49 47 121.5 82t160.5 35q100 0 184.5 -40t142.5 -111t91 -169t33 -213q0 -117 -31.5 -212t-90 -162.5t-141.5 -103.5t-183 -36 q-90 0 -164 24.5t-119 59.5q0 -53 2 -123q2 -59 2 -145t4 -197q-39 0 -84 2q-39 0 -89 1t-105 1zM322 485q0 -139 64.5 -222t180.5 -83q51 0 93 23.5t71 63.5t44.5 93.5t15.5 110.5q0 63 -16.5 120.5t-47.5 99.5t-74 66.5t-96 24.5q-117 0 -176 -83t-59 -214z" />
<glyph unicode="&#xff;" horiz-adv-x="1005" d="M-2 989q35 12 78 25q37 10 86 25.5t108 31.5q33 -131 70 -274q33 -125 75 -283t89 -324l71 256q33 117 74 262.5t82 299.5q35 -10 76 -21q35 -10 84 -22.5t106 -26.5q-90 -272 -158.5 -479t-125 -360.5t-106.5 -257t-105.5 -166t-121 -89t-153.5 -26.5q-66 0 -118 15 t-86 34q4 35 12 74q6 35 12 77.5t14 89.5q41 -14 79 -22t73 -8q51 0 89 20.5t54 67.5q-53 156 -110 332q-51 152 -114.5 345t-133.5 404zM143 1340q0 61 37 112.5t109 51.5t115 -46.5t43 -119.5q0 -66 -42 -112t-116 -46q-66 0 -106 45t-40 115zM559 1313q0 78 45.5 121 t108.5 43q66 0 106.5 -49t40.5 -111q0 -74 -42 -117t-101 -43q-74 0 -116 45.5t-42 110.5z" />
<glyph unicode="&#x152;" horiz-adv-x="2025" d="M47 684q0 150 40 293t119 254.5t197.5 179.5t278.5 68q106 0 194.5 -38t147.5 -91q0 29 -1 48t-1 34v26q188 -4 351 -6t286 -4q143 -2 260 -4q-4 -49 -4 -96q0 -45 -2 -80q-2 -41 -2 -78q-119 4 -232.5 6t-205.5 4q-106 2 -203 2q-4 -66 -5 -139.5t1 -134.5q0 -72 4 -144 q86 2 174 3t162 4q86 2 168 4q0 -61 1 -104.5t3 -69.5q2 -33 2 -52q-76 -4 -160 -7t-156 -7q-82 -4 -164 -6q2 -47 4.5 -100.5t6.5 -98.5q4 -53 6 -104h217q115 0 211 2q113 2 219 4q4 -45 7 -87t5 -75q2 -39 2 -74q-164 -6 -325.5 -9t-292.5 -5q-154 -2 -293 -4 q-2 29 -2 78v80q-61 -82 -170 -132.5t-227 -50.5q-154 0 -270.5 53.5t-194.5 147.5t-117 224t-39 286zM340 666q0 -104 20.5 -190.5t61.5 -148t104.5 -96t147.5 -34.5q88 0 154.5 41t110.5 114.5t65.5 177t21.5 230.5q0 92 -16.5 177t-53 151.5t-96 105.5t-145.5 39 q-90 0 -160 -45t-118 -122t-72.5 -180.5t-24.5 -219.5z" />
<glyph unicode="&#x153;" horiz-adv-x="1880" d="M49 489q0 131 42 233.5t113.5 172.5t166 106.5t198.5 36.5q70 0 129.5 -14t106.5 -36.5t84.5 -51t68.5 -57.5q78 100 177.5 140t203.5 40q113 0 205 -42t157.5 -112.5t102.5 -165t37 -200.5q0 -43 -6 -86q-164 -4 -297 -9.5t-229 -9.5q-113 -6 -199 -10q2 -49 22.5 -90 t54.5 -72t78 -47t93 -16q90 0 147.5 45t87.5 116q29 -4 68 -8q35 -4 82 -9t108 -11q-23 -78 -67.5 -142.5t-107 -110.5t-140.5 -70.5t-166 -24.5q-129 0 -224 39.5t-167 113.5q-70 -82 -171 -131t-249 -49q-139 0 -235.5 48t-158 124t-89 171t-27.5 189zM326 504 q0 -63 16 -121.5t48 -105t79 -74t109 -27.5q61 0 109 26.5t82 71.5t51.5 102.5t17.5 117.5q0 70 -17.5 129t-50.5 104t-81 70.5t-109 25.5q-61 -2 -108.5 -28.5t-79.5 -70.5t-49 -101.5t-17 -118.5zM1081 625q70 -2 150 -2q68 0 156 1t186 5q-10 98 -78 160.5t-160 62.5 q-55 0 -99 -19.5t-76 -52t-52.5 -72.5t-26.5 -83z" />
<glyph unicode="&#x178;" horiz-adv-x="1222" d="M0 1389q35 16 80 36.5t86 36.5q47 20 92 39q23 -57 50.5 -124.5t56 -138.5t59.5 -141.5t59 -135.5q68 -154 135 -310q70 141 132.5 278.5t109.5 248.5q55 127 105 243q41 -18 86 -39.5t84 -40.5q45 -23 88 -41q-29 -61 -66 -133.5t-76 -149.5t-78.5 -154t-76.5 -148 q-88 -168 -178 -338q0 -57 2 -127t4 -131l4 -144q-49 -2 -102.5 -3t-96.5 -1h-98q2 55 2 127v138v151q-35 72 -74 153t-78 164.5t-76.5 166.5t-72.5 159q-82 179 -162 359zM286 1727q0 61 37 112.5t109 51.5t115 -46.5t43 -119.5q0 -66 -42 -112t-116 -46q-66 0 -106 45 t-40 115zM702 1700q0 78 45.5 121t108.5 43q66 0 106.5 -49t40.5 -111q0 -74 -42 -117t-101 -43q-74 0 -116 45.5t-42 110.5z" />
<glyph unicode="&#x2c6;" horiz-adv-x="770" d="M20 1284q16 14 50 45q29 27 74.5 72t121.5 117q35 -2 74 -2q35 -2 76 -3q43 0 88 -4q20 -20 55 -51q29 -27 75 -66.5t116 -95.5q-16 -18 -39 -41q-18 -20 -47 -48.5t-64 -67.5q-29 27 -65 61q-31 29 -73 67t-89 83q-18 -18 -45 -50q-23 -27 -60 -67.5t-90 -102.5 q-18 14 -41 37q-20 18 -49 47t-68 70z" />
<glyph unicode="&#x2dc;" horiz-adv-x="778" d="M20 1247q23 117 78.5 186.5t145.5 69.5q41 0 74.5 -15t64.5 -33.5t58.5 -34t58.5 -15.5q35 0 56.5 25.5t27.5 60.5q27 -10 55 -21q25 -10 55.5 -21.5t63.5 -25.5q-4 -47 -22.5 -91t-47.5 -79.5t-66.5 -57t-82.5 -21.5q-47 0 -82 15t-63.5 34.5t-55.5 35t-57 15.5 q-35 0 -55.5 -24.5t-32.5 -65.5q-23 8 -50 18q-23 8 -54.5 19.5t-68.5 25.5z" />
<glyph unicode="&#x2000;" horiz-adv-x="991" />
<glyph unicode="&#x2001;" horiz-adv-x="1982" />
<glyph unicode="&#x2002;" horiz-adv-x="991" />
<glyph unicode="&#x2003;" horiz-adv-x="1982" />
<glyph unicode="&#x2004;" horiz-adv-x="660" />
<glyph unicode="&#x2005;" horiz-adv-x="495" />
<glyph unicode="&#x2006;" horiz-adv-x="330" />
<glyph unicode="&#x2007;" horiz-adv-x="330" />
<glyph unicode="&#x2008;" horiz-adv-x="247" />
<glyph unicode="&#x2009;" horiz-adv-x="396" />
<glyph unicode="&#x200a;" horiz-adv-x="110" />
<glyph unicode="&#x2010;" horiz-adv-x="718" d="M51 860h133h160t168 1t156 3q-4 -82 -7.5 -133t-5.5 -80q-2 -35 -2 -49q-180 4 -293.5 6t-179.5 2h-90h-31q-2 131 -6 193q-2 37 -2 57z" />
<glyph unicode="&#x2011;" horiz-adv-x="718" d="M51 860h133h160t168 1t156 3q-4 -82 -7.5 -133t-5.5 -80q-2 -35 -2 -49q-180 4 -293.5 6t-179.5 2h-90h-31q-2 131 -6 193q-2 37 -2 57z" />
<glyph unicode="&#x2012;" horiz-adv-x="718" d="M51 860h133h160t168 1t156 3q-4 -82 -7.5 -133t-5.5 -80q-2 -35 -2 -49q-180 4 -293.5 6t-179.5 2h-90h-31q-2 131 -6 193q-2 37 -2 57z" />
<glyph unicode="&#x2013;" horiz-adv-x="1021" d="M51 864q197 0 375 -2q76 0 154.5 -1t150.5 -1h135h105q-2 -23 -4 -59q-2 -31 -3 -79t-1 -114h-273h-289q-162 0 -342 -4q-2 18 -2 55q-2 31 -2 80q0 51 -4 125z" />
<glyph unicode="&#x2014;" horiz-adv-x="1335" d="M51 860h139h181q98 0 202.5 1t206.5 1q238 2 504 2q-4 -72 -6 -120t-4 -78q-2 -37 -2 -58q-197 2 -353.5 3t-278.5 3t-213 3t-155 1q-152 2 -211 3q-4 66 -5 111.5t-3 74.5q-2 33 -2 53z" />
<glyph unicode="&#x2018;" horiz-adv-x="442" d="M43 1294q0 92 50 159t145 67q29 0 57.5 -11.5t52 -34t37.5 -54t14 -70.5q0 -72 -40 -124t-105 -69q16 -35 30.5 -60.5t26.5 -45.5q15 -23 27 -41q-29 -18 -53.5 -36t-40.5 -30q-23 -14 -37 -26q-82 100 -123 192t-41 184z" />
<glyph unicode="&#x2019;" horiz-adv-x="436" d="M43 1329q0 84 49 129t113 45q86 0 138 -62.5t52 -168.5q0 -109 -50 -204t-122 -177q-16 14 -39 31q-18 14 -41.5 30.5t-52.5 34.5q14 18 31 41q14 20 30.5 47t32.5 62q-66 16 -103.5 68t-37.5 124z" />
<glyph unicode="&#x201a;" horiz-adv-x="436" d="M43 203q0 84 49 129t113 45q86 0 138 -62.5t52 -169.5q0 -109 -50 -204t-122 -177q-16 14 -39 31q-18 14 -41.5 30.5t-52.5 35.5q14 18 31 41q14 20 30.5 46.5t32.5 61.5q-66 16 -103.5 68.5t-37.5 124.5z" />
<glyph unicode="&#x201c;" horiz-adv-x="839" d="M43 1288q0 102 52.5 165t144.5 63q66 0 116 -47.5t50 -137.5q0 -39 -13.5 -70.5t-35 -55t-47 -39t-52.5 -21.5q20 -37 39.5 -63.5t36.5 -45.5q18 -23 33 -37q-29 -23 -53.5 -41t-41.5 -32q-20 -16 -36 -31q-82 78 -137.5 178.5t-55.5 214.5zM440 1237q0 92 50.5 158.5 t144.5 66.5q29 0 57.5 -11t52 -33.5t38 -54.5t14.5 -71q0 -72 -40 -124t-106 -68q16 -35 30.5 -60.5t27.5 -46.5q14 -23 26 -41q-29 -18 -53.5 -35.5t-40.5 -29.5q-23 -14 -37 -27q-82 100 -123 192.5t-41 184.5z" />
<glyph unicode="&#x201d;" horiz-adv-x="831" d="M43 1303q0 84 49 129t113 45q86 0 138 -62.5t52 -169.5q0 -109 -50 -204t-122 -177q-16 14 -39 31q-18 14 -41.5 30.5t-52.5 35.5q14 18 31 40q14 20 30.5 47t32.5 62q-66 16 -103.5 68.5t-37.5 124.5zM434 1341q0 86 46 134.5t112 48.5q92 0 144 -63.5t52 -168.5 q0 -66 -16 -122t-43 -104t-57.5 -88t-59.5 -73q-16 16 -39 33q-18 14 -41.5 31.5t-52.5 36.5q16 14 33 36q31 41 70 113q-27 6 -52.5 20.5t-47 38t-35 55t-13.5 72.5z" />
<glyph unicode="&#x201e;" horiz-adv-x="831" d="M43 209q0 84 49 129t113 45q86 0 138 -62.5t52 -168.5q0 -109 -50 -204t-122 -177q-16 14 -39 30q-18 14 -41.5 30.5t-52.5 35.5q14 18 31 41q14 20 30.5 46.5t32.5 61.5q-66 16 -103.5 68.5t-37.5 124.5zM434 248q0 86 44 132t110 50q92 0 146 -61.5t54 -169.5 q0 -66 -16 -122.5t-43 -104.5t-57.5 -88t-59.5 -72q-16 16 -39 32q-18 14 -41.5 32t-52.5 36q16 14 33 37q31 40 70 112q-27 6 -52.5 20.5t-47 38t-35 55.5t-13.5 73z" />
<glyph unicode="&#x2022;" horiz-adv-x="591" d="M86 506q2 51 4 119q2 57 3 135t1 176h115q113 0 295 6v-139v-135q0 -72 2 -140q-63 -4 -131 -8q-59 -4 -135 -8t-154 -6z" />
<glyph unicode="&#x2026;" horiz-adv-x="1353" d="M43 154q0 84 48 134t120 50q78 0 129 -46t51 -130q0 -86 -50 -136.5t-122 -50.5q-76 0 -126 49.5t-50 129.5zM489 139q0 76 50.5 130.5t124.5 54.5q37 0 69.5 -13.5t57 -36t40 -56.5t15.5 -73q0 -78 -51.5 -133t-128.5 -55q-72 0 -124.5 52t-52.5 130zM940 176 q0 74 50 129t130 55t135.5 -51t55.5 -131q0 -74 -52.5 -126t-130.5 -52q-39 0 -73.5 13.5t-60 37t-40 56t-14.5 69.5z" />
<glyph unicode="&#x202f;" horiz-adv-x="396" />
<glyph unicode="&#x2039;" horiz-adv-x="528" d="M20 713q80 127 133.5 212t84.5 136q37 59 57 94q49 -29 87 -51.5t64 -36.5q32 -19 52 -29q-66 -92 -107 -150.5t-65 -94.5l-45 -68q43 -82 77.5 -143.5t59.5 -102.5q29 -49 49 -84q-57 -37 -96 -62.5t-62 -41.5q-29 -20 -45 -31q-66 123 -112 209t-74 139q-35 63 -58 105 z" />
<glyph unicode="&#x203a;" horiz-adv-x="505" d="M31 1038q20 10 51 25q27 12 64 31.5t90 48.5q14 -29 47 -82q29 -47 77 -128t125 -206q-16 -31 -47 -90q-27 -51 -71.5 -138t-112.5 -225l-49 31q-25 16 -62 39t-86 51q18 31 45 80q23 41 55.5 102.5t75.5 147.5q-14 25 -40 66q-23 35 -62 95t-100 152z" />
<glyph unicode="&#x205f;" horiz-adv-x="495" />
<glyph unicode="&#x20ac;" horiz-adv-x="1382" d="M29 815h49q51 0 143 6q4 127 38 243t103.5 205t174 141t249.5 52q109 0 203 -35.5t163 -108.5t107.5 -181.5t38.5 -253.5q-84 -6 -137 -9.5t-84 -5.5q-37 -2 -53 -4q0 156 -59.5 255.5t-190.5 99.5q-66 0 -113 -27t-78.5 -75t-48 -113.5t-18.5 -143.5q72 -2 130.5 -1 t98.5 1q49 0 86 2q2 -47 5 -92q2 -39 4 -82t6 -74q-104 -4 -175 -7t-114 -5q-53 -2 -82 -4q8 -172 94 -267t207 -95q117 0 196 64.5t93 211.5q27 -2 65 -4q35 -2 86.5 -6t122.5 -8q-12 -129 -60 -226.5t-123 -161t-173 -95t-209 -31.5q-129 0 -229.5 41.5t-171 117.5 t-112.5 179.5t-58 226.5h-41q-20 0 -50 1t-71 1q0 31 -2 69q-2 35 -4 84.5t-6 114.5z" />
<glyph unicode="&#x2122;" horiz-adv-x="1175" d="M10 1243q2 31 3 58.5t1 50.5v49q119 4 240 6t219 6q115 4 223 8q-2 -31 -2 -57v-45v-43q-90 -2 -159.5 -3t-116.5 -3q-55 -2 -99 -4q-2 -88 -3 -178.5t-1 -163.5v-166q-23 0 -49 1t-51 1h-57q2 98 4 185t2 153v143q-14 0 -40 1t-50 1h-64zM391 700q2 70 6 152 q4 70 7.5 157t9.5 179q35 0 75 2q35 2 82 4t101 6q10 -47 22 -104q10 -49 25.5 -117t36.5 -148q14 72 28 154q12 70 27.5 159t32.5 185q37 -2 80 -4q37 -2 84 -4t98 -6q4 -98 10 -207q4 -92 9.5 -207.5t9.5 -232.5q-23 0 -48 -2q-23 -2 -50 -3t-60 -1q-2 96 -4 194 q-2 84 -6 177t-9 171q-10 -66 -24 -143q-12 -66 -30.5 -155t-41.5 -189q-31 0 -65 2q-29 0 -66 1t-76 1q-14 51 -30 113q-14 53 -32 119.5t-36 144.5q-2 -57 -6 -123q-4 -57 -6 -130t-4 -153q-23 2 -47 4q-23 2 -50 2q-25 0 -53 2z" />
<glyph unicode="&#x25fc;" horiz-adv-x="1044" d="M0 0v1044h1044v-1044h-1044z" />
<glyph unicode="&#xfb01;" horiz-adv-x="1202" d="M14 981q10 -2 31 -2h107q-4 109 13 199t62 155.5t117 102.5t176 37q80 0 182 -25l-28 -219q-53 12 -94 12q-102 0 -137 -64.5t-31 -177.5q90 -2 200 -2q94 0 222.5 1t281.5 6q-2 -111 -4 -256q-2 -125 -4 -305.5t-2 -411.5q-55 0 -107 -2q-43 -2 -89 -3t-74 1 q2 115 4 241q2 111 2 246q0 137 2 279q-57 -2 -123 -2q-55 -2 -127 -3q-72 0 -148 -4q0 -92 3 -217q2 -106 2 -260t4 -352q-41 -2 -86 -2q-39 -2 -88 -2h-101q2 109 2 239v261t-2 323h-49q-23 0 -52.5 -1t-62.5 -3v64v67q0 39 -2 80zM772 1300q0 92 56.5 146.5t134.5 54.5 q82 0 138 -52t56 -138q0 -45 -16.5 -82t-43 -63.5t-63.5 -41t-76 -14.5t-72.5 15.5t-59 41t-40 60.5t-14.5 73z" />
<glyph unicode="&#xfb02;" horiz-adv-x="1181" d="M10 1006q12 -2 35 -2h111q0 106 22.5 190t67.5 142.5t114.5 90t167.5 31.5q104 0 240 -37l-49 -231q-78 23 -127 22q-49 0 -82 -16t-52.5 -47t-26.5 -73t-7 -91q33 0 72 2q35 2 80 3t102 5q0 -43 2 -84q2 -35 2 -73v-60q-39 -2 -78 -2q-35 -2 -78 -2q-41 0 -80 -4 q0 -88 3 -211q2 -104 2 -258q0 -152 4 -350q-39 -2 -84 -2q-39 -2 -88 -2h-101q2 111 2 243v269q0 156 -2 340h-53q-25 0 -54.5 -1t-62.5 -3v61v68t-2 82zM817 1475q55 0 106.5 -1t90.5 -4q45 -2 86 -4q-2 -117 -3 -240.5t-2 -246.5t-2 -240.5t-1 -222.5q-2 -248 -5 -483 q-55 0 -103 -1t-83 -1q-41 -2 -78 -2v172v215t-1 238.5t-1 240.5q-2 277 -4 580z" />
<glyph unicode="&#xfb03;" horiz-adv-x="1890" d="M10 1006q12 -2 35 -2h111q0 106 22.5 190t67.5 142.5t114.5 90t167.5 31.5q104 0 240 -37q-12 -53 -21.5 -95t-15.5 -73q-8 -37 -12 -63q-39 12 -71 17t-58 5q-49 0 -82 -17t-52.5 -49t-26.5 -75t-5 -94q63 2 131 4q59 2 131 4t148 6q0 238 90 372t295 134q47 0 99 -8 t112 -25q-18 -115 -25 -172q-4 -35 -6 -57q-74 18 -127 18q-100 0 -137 -64t-33 -179h297h119q61 0 114.5 -1t96.5 -2t67 -3q-2 -123 -4 -281q-2 -135 -4 -321.5t-2 -417.5q-55 0 -107 -2q-43 -2 -89 -3.5t-74 1.5q2 129 4 270q2 119 2 264q0 147 2 289q-57 0 -117.5 -1 t-116 -2t-101.5 -2t-75 -3q0 -86 2 -203q2 -102 2 -252q0 -147 4 -346q-35 -2 -75 -2q-35 -2 -82 -2h-97q-4 131 -8 266q-4 117 -6 253t-4 263h-178q-102 0 -226 -2q0 -88 3 -211q2 -104 2 -258q0 -152 4 -350q-39 -2 -84 -2q-39 -2 -88 -2h-101q2 182 2 346v141v141 q0 68 -1 125.5t-1 98.5h-53q-25 0 -54.5 -1t-62.5 -3v73q0 33 -1 70t-1 68zM1464 1350q0 86 57.5 138t137.5 52q76 -2 128 -55t52 -131q0 -92 -53 -144.5t-131 -52.5q-82 0 -136.5 50t-54.5 143z" />
<glyph unicode="&#xfb04;" horiz-adv-x="1867" d="M10 1006q12 -2 35 -2h111q0 106 22.5 190t67.5 142.5t114.5 90t167.5 31.5q104 0 240 -37l-49 -231q-39 12 -71 17t-58 5q-49 0 -82 -17t-52.5 -49t-26.5 -75t-5 -94q63 2 131 4q59 2 131 4t148 6q-4 115 17 208t68.5 158.5t121 101.5t176.5 36q51 0 107 -8t122 -27 l-47 -225q-74 18 -127 18q-100 0 -137 -64t-33 -179q33 0 72 2q35 2 79.5 3t102.5 5q4 -57 5 -121.5t1 -93.5q-14 0 -45 -2q-29 -2 -77 -3t-126 -5q0 -86 2 -205q2 -102 2 -252t4 -348q-35 -2 -75 -2q-35 -2 -82 -2h-97q-4 131 -8 268q-4 117 -6 254t-4 264h-141 q-59 0 -131 -1t-132 -1q0 -88 3 -211q2 -104 2 -258q0 -152 4 -350q-39 -2 -84 -2q-39 -2 -88 -2h-101q2 182 2 346v141v141q0 68 -1 125.5t-1 98.5h-53q-25 0 -54.5 -1t-62.5 -3v73q0 33 -1 70t-1 68zM1503 1434q55 0 106.5 -1t90.5 -3q45 -2 86 -5q-2 -117 -3 -240.5 t-2 -246.5t-2 -240.5t-1 -222.5q-2 -248 -4 -483q-55 0 -103.5 -1t-83.5 -1q-41 -2 -78 -2q2 291 2 561v237q0 123 -1 240t-3 222.5t-4 185.5z" />
</font>
</defs>
</svg>
